<svg width="1000" height="1000" viewBox="0 0 1000 1000" fill="none" xmlns="http://www.w3.org/2000/svg">
<g clip-path="url(#clip0_246_3370)">
<g clip-path="url(#clip1_246_3370)">
<path fill-rule="evenodd" clip-rule="evenodd" d="M543.852 928.156C543.852 950.48 525.582 968.75 503.258 968.75H71.8457C49.5176 968.75 31.25 950.482 31.25 928.156V71.8457C31.25 49.5176 49.5176 31.25 71.8457 31.25H503.258C525.584 31.25 543.852 49.5195 543.852 71.8438V928.156Z" fill="#D7DEE2"/>
<path fill-rule="evenodd" clip-rule="evenodd" d="M543.85 928.156C543.85 950.48 525.58 968.75 503.256 968.75H464.191C486.516 968.75 504.785 950.479 504.785 928.156V71.8457C504.785 49.5195 486.518 31.252 464.191 31.252H503.256C525.582 31.252 543.85 49.5215 543.85 71.8457V928.156Z" fill="#C3CACE"/>
<path fill-rule="evenodd" clip-rule="evenodd" d="M255.062 869.979C250.918 869.979 246.944 868.332 244.014 865.402C241.084 862.472 239.438 858.498 239.438 854.354C239.438 850.21 241.084 846.235 244.014 843.305C246.944 840.375 250.918 838.729 255.062 838.729H320.035C324.179 838.729 328.153 840.375 331.084 843.305C334.014 846.235 335.66 850.21 335.66 854.354C335.66 858.498 334.014 862.472 331.084 865.402C328.153 868.332 324.179 869.979 320.035 869.979H255.062Z" fill="black"/>
<path fill-rule="evenodd" clip-rule="evenodd" d="M143.168 31.25H431.928L416.57 78.5156C413.996 86.4355 406.924 91.5762 398.596 91.5762H176.502C168.174 91.5762 161.1 86.4355 158.527 78.5156L143.168 31.25Z" fill="#D1D1D6"/>
<path fill-rule="evenodd" clip-rule="evenodd" d="M412.398 31.25H431.93L416.572 78.5156C413.998 86.4355 406.926 91.5762 398.598 91.5762H379.066C387.395 91.5762 394.469 86.4355 397.041 78.5156L412.398 31.25Z" fill="#B1B1B5"/>
<path d="M919.387 318.404C985.063 252.728 985.063 146.246 919.387 80.5705C853.711 14.8945 747.23 14.8945 681.554 80.5705C615.878 146.246 615.878 252.728 681.554 318.404C747.23 384.08 853.711 384.08 919.387 318.404Z" fill="#263238"/>
<path fill-rule="evenodd" clip-rule="evenodd" d="M800.576 31.25C893.455 31.25 968.75 106.545 968.75 199.424C968.75 292.303 893.455 367.598 800.576 367.598C797.719 367.598 794.879 367.525 792.059 367.385C880.98 362.949 951.715 289.447 951.715 199.426C951.715 109.402 880.98 35.9023 792.059 31.4668C794.896 31.3229 797.736 31.2506 800.576 31.25Z" fill="#263238"/>
<path fill-rule="evenodd" clip-rule="evenodd" d="M701.44 207.349C693.942 199.851 693.942 187.695 701.44 180.197C708.938 172.699 721.094 172.699 728.592 180.197L776.157 227.763L872.61 130.347C880.067 122.849 892.19 122.816 899.688 130.273C907.186 137.728 907.219 149.853 899.762 157.349C863.102 194.377 826.598 231.685 789.764 268.519C782.266 276.017 770.11 276.017 762.612 268.519L701.44 207.349Z" fill="#ECEFF1"/>
<path fill-rule="evenodd" clip-rule="evenodd" d="M677.898 794.029L726.187 744.266L590.115 610.748L543.465 662.1L677.898 794.029Z" fill="#C3CACE"/>
<path fill-rule="evenodd" clip-rule="evenodd" d="M677.9 794.029L726.189 744.266L590.117 610.748L577.574 624.555L699.576 744.266L664.268 780.65L677.9 794.029Z" fill="#C3CACE"/>
<path fill-rule="evenodd" clip-rule="evenodd" d="M832.33 949.225L886.826 893.063C896.398 883.2 896.156 867.303 886.294 857.731L735.351 711.262C725.49 701.69 709.587 701.93 700.017 711.791L645.521 767.954C635.951 777.815 636.189 793.719 646.052 803.288L796.994 949.754C806.859 959.325 822.757 959.088 832.33 949.225Z" fill="#263238"/>
<path fill-rule="evenodd" clip-rule="evenodd" d="M832.33 949.225L886.826 893.063C896.398 883.2 896.154 867.303 886.295 857.731L735.352 711.262C726.951 703.108 714.164 702.077 704.645 708.047C706.118 708.972 707.49 710.05 708.738 711.262L859.68 857.731C869.541 867.303 869.783 883.2 860.211 893.063L805.715 949.225C804.329 950.654 802.776 951.911 801.09 952.969C810.857 959.102 823.994 957.817 832.33 949.225Z" fill="#263238"/>
<path d="M579.811 668.132C687.151 560.792 687.151 386.759 579.811 279.419C472.471 172.079 298.439 172.079 191.098 279.419C83.7585 386.759 83.7585 560.792 191.098 668.132C298.439 775.472 472.471 775.472 579.811 668.132Z" fill="#C3CACE"/>
<path fill-rule="evenodd" clip-rule="evenodd" d="M385.547 198.922C537.348 198.922 660.408 321.982 660.408 473.783C660.408 625.584 537.348 748.645 385.547 748.645C382.414 748.645 379.299 748.572 376.191 748.469C523.658 743.533 641.697 622.451 641.697 473.783C641.697 325.115 523.658 204.033 376.191 199.098C379.297 198.994 382.414 198.922 385.547 198.922Z" fill="black"/>
<path d="M525.015 613.335C602.092 536.258 602.092 411.292 525.015 334.216C447.938 257.139 322.972 257.139 245.896 334.216C168.819 411.292 168.819 536.258 245.896 613.335C322.972 690.412 447.938 690.412 525.015 613.335Z" fill="#ECEFF1"/>
<path fill-rule="evenodd" clip-rule="evenodd" d="M385.547 276.416C388.459 276.416 391.354 276.492 394.234 276.617C289.266 281.166 205.557 367.693 205.557 473.783C205.557 579.873 289.266 666.4 394.234 670.949C391.354 671.074 388.459 671.15 385.547 671.15C276.545 671.15 188.18 582.785 188.18 473.783C188.18 364.781 276.543 276.416 385.547 276.416Z" fill="#D1D1D6"/>
<path fill-rule="evenodd" clip-rule="evenodd" d="M523.408 615.001V552.836C523.408 522.157 496.082 504.735 464.992 497.024C412.789 484.075 359.865 483.198 306.1 497.024C275.082 504.999 247.684 522.141 247.684 552.836V615.001C283.26 649.735 331.898 671.151 385.545 671.151C439.195 671.151 487.834 649.737 523.408 615.001Z" fill="#D7DEE2"/>
<path fill-rule="evenodd" clip-rule="evenodd" d="M294.707 649.037C304.732 654.245 315.187 658.579 325.957 661.988V581.627C325.957 577.483 324.311 573.509 321.381 570.578C318.45 567.648 314.476 566.002 310.332 566.002C306.188 566.002 302.214 567.648 299.283 570.578C296.353 573.509 294.707 577.483 294.707 581.627V649.037ZM445.137 661.988C455.907 658.579 466.363 654.246 476.387 649.037V581.625C476.387 577.481 474.741 573.507 471.81 570.576C468.88 567.646 464.906 566 460.762 566C456.618 566 452.643 567.646 449.713 570.576C446.783 573.507 445.137 577.481 445.137 581.625V661.988Z" fill="#263238"/>
<path fill-rule="evenodd" clip-rule="evenodd" d="M523.406 615V552.836C523.406 522.157 496.08 504.735 464.99 497.024C434.553 489.473 403.869 486.03 372.918 487.209C395.793 488.076 418.523 491.418 441.119 497.024C472.209 504.737 499.533 522.158 499.533 552.836V634.918C508.001 628.915 515.983 622.255 523.406 615Z" fill="#263238"/>
<path fill-rule="evenodd" clip-rule="evenodd" d="M385.547 327.057C419.809 327.057 447.586 346.582 447.586 391.613C447.586 436.645 419.811 473.15 385.547 473.15C351.283 473.15 323.508 436.645 323.508 391.613C323.508 346.582 351.285 327.057 385.547 327.057Z" fill="#D7DEE2"/>
<path fill-rule="evenodd" clip-rule="evenodd" d="M385.547 327.057C419.809 327.057 447.586 346.582 447.586 391.613C447.586 436.645 419.811 473.15 385.547 473.15C383.045 473.15 380.578 472.949 378.152 472.572C408.93 467.768 432.797 433.357 432.797 391.615C432.797 349.873 408.93 330.049 378.152 327.375C380.611 327.161 383.079 327.055 385.547 327.057Z" fill="#C3CACE"/>
</g>
</g>
<defs>
<clipPath id="clip0_246_3370">
<rect width="1000" height="1000" fill="white"/>
</clipPath>
<clipPath id="clip1_246_3370">
<rect width="1000" height="1000" fill="white"/>
</clipPath>
</defs>
</svg>
