<svg xmlns="http://www.w3.org/2000/svg" enable-background="new 0 0 300 300" viewBox="0 0 300 300"><path fill="#f3f6fd" d="M241.354 60.634v104.915c0 1.624-1.362 2.947-2.986 2.947H105.456c-1.667 0-2.99-1.323-2.99-2.947V60.634h138.888z"/><path fill="#d1dcf8" d="M241.346 60.622v-6.037a2.978 2.978 0 0 0-2.978-2.977H105.453a2.978 2.978 0 0 0-2.978 2.977v6.037h138.871z"/><circle cx="110.062" cy="56.115" r="2.222" fill="#fff"/><circle cx="115.734" cy="56.115" r="2.222" fill="#fff"/><circle cx="121.407" cy="56.115" r="2.222" fill="#fff"/><path fill="#d1dcf8" d="M184.141 114.749h44.103v40.934h-44.103z" transform="rotate(-27.997 206.192 135.216)"/><path fill="#f3f6fd" d="M188.894 116.333h34.597v37.766h-34.597z" transform="rotate(62.003 206.192 135.216)"/><path fill="#42c1f4" d="m229.202 141.077-19.56-7.868-3.493 12.482-5.448-2.628-2.519 14.506z"/><circle cx="196.802" cy="133.016" r="2.721" fill="#42c1f4"/><path fill="#e4ecf9" d="M211.992 131.334h60.855v56.483h-60.855z"/><path fill="#f3f6fd" d="M218.55 133.52h47.739v52.111H218.55z" transform="rotate(90 242.42 159.575)"/><path fill="#64d3ff" d="m266.658 181.622-18.737-22.257-12.34 12.945-4.935-6.73-12.465 16.042z"/><circle cx="232.404" cy="150.813" r="3.755" fill="#64d3ff"/><path fill="#e4ecf9" d="M169.28 71.88v33.82c0 .995-.808 1.74-1.803 1.74h-53.591c-.995 0-1.741-.745-1.741-1.74V71.88c0-.933.746-1.742 1.74-1.742h53.592c.995 0 1.803.809 1.803 1.741z"/><circle cx="140.712" cy="88.79" r="7.538" fill="#fe4c40"/><path fill="#d1dcf8" d="M138.322 92.32v-7.06c0-.29.316-.455.568-.303l5.472 3.53a.354.354 0 0 1 0 .605l-5.472 3.53c-.252.152-.568-.012-.568-.302zM169.28 114.073a.748.748 0 0 1-.216.524.748.748 0 0 1-.525.216h-55.654a.74.74 0 1 1 0-1.48h55.654a.74.74 0 0 1 .74.74zM169.28 118.874a.748.748 0 0 1-.216.524.748.748 0 0 1-.525.216h-55.654a.74.74 0 1 1 0-1.48h55.654a.74.74 0 0 1 .74.74zM143.673 123.675a.748.748 0 0 1-.216.524.748.748 0 0 1-.524.216h-30.048a.74.74 0 1 1 0-1.48h30.048a.74.74 0 0 1 .74.74zM108.236 131.177h19.348v1.635h-19.348zM131.329 131.177h27.422v1.635h-27.422zM162.376 131.177h14.738v1.635h-14.738zM108.236 136.008h24.301v1.635h-24.301zM135.316 136.008h45.512v1.636h-45.512zM149.571 140.839h10.147v1.635h-10.147zM108.236 140.839h14.395v1.635h-14.395zM125.41 140.839h20.778v1.635H125.41zM163.342 140.839h17.486v1.636h-17.486zM108.236 145.669h26.476v1.635h-26.476zM137.49 145.669h32.979v1.635H137.49zM173.006 145.669h7.821v1.636h-7.821zM108.236 150.5h14.033v1.635h-14.033zM125.652 150.5h28.509v1.635h-28.509zM157.544 150.5h14.338v1.635h-14.338zM108.236 155.33h11.134v1.635h-11.134zM122.269 155.33H136.8v1.635h-14.531zM136.645 160.455h17.04v1.635h-17.04zM108.236 160.455h24.905v1.635h-24.905z"/><path fill="#fec9ac" d="M55.178 229.08h8.67v14.118h-8.67z"/><path fill="#ffab90" d="M55.178 229.08v4.993c2.897.172 5.816-.03 8.67-.606v-4.387h-8.67z"/><path fill="#2e363a" d="M51.847 248.392h27.53a2.33 2.33 0 0 0 1.69-.732 2.564 2.564 0 0 0 .707-1.772c0-1.046-.62-1.98-1.555-2.354-2.897-1.136-7.964-2.399-9.034-3.52-1.434-1.495-3.939-3.998-5.73-3.871-1.79.127-2.861 3.124-5.609 4.873-1.948 1.24-4.053-1.824-5.101-3.707-.357-.636-1.25-.643-1.585 0-2.226 4.208-1.313 11.083-1.313 11.083z"/><path fill="#fec9ac" d="M32.917 229.08h8.67v14.118h-8.67z"/><path fill="#ffab90" d="M32.917 229.08v4.993c2.897.172 5.816-.03 8.67-.606v-4.387h-8.67z"/><path fill="#3a4146" d="M29.586 248.392h27.53a2.33 2.33 0 0 0 1.69-.732 2.564 2.564 0 0 0 .707-1.772c0-1.046-.62-1.98-1.556-2.354-2.896-1.136-7.963-2.399-9.033-3.52-1.434-1.495-3.939-3.998-5.73-3.871-1.791.127-2.861 3.124-5.609 4.873-1.948 1.24-4.053-1.824-5.102-3.707-.356-.636-1.248-.643-1.584 0-2.226 4.208-1.313 11.083-1.313 11.083zM71.964 137.8c0 .005-.006.01 0 .017-.264 1.662.61 92.656-3.406 93.865-3.202.955-11.228.005-14.468-.438-.193-.023-.368-.051-.528-.074-.016 0-.027 0-.044-.006-.516-.07-.818-.121-.818-.121l-.088-3.038-.456-15.913s-.868 3.486-1.972 7.433a152.808 152.808 0 0 1-1.505 5.097c-.983 3.13-1.95 5.685-2.532 5.96-1.588.749-15.446-1.03-15.952-1.944-.258-.466.193-23.197.709-45.75.51-22.438 1.082-44.697 1.082-44.697l39.978-.392z"/><path fill="#2e363a" d="M60.791 152.062s-.198 53.402-7.229 79.108c-.01.023-.016.051-.022.074l-.022-.08-.906-3.159-.456-15.913s-.868 3.486-1.972 7.433l-.313-1.099c1.51-21.017 5.367-43.247 10.92-66.364z"/><path fill="#2e363a" d="m46.02 230.853-.846-.535c1.665-2.628 3.14-12.254 5.18-25.578 2.172-14.18 5.145-33.601 9.893-54.433l.975.223c-4.74 20.796-7.71 40.196-9.88 54.362-2.135 13.944-3.546 23.156-5.322 25.961z"/><path fill="#2e363a" d="M30.902 182.888c5.26-11.657 12.536-22.323 21.397-31.277 5.694-5.744 12.344-10.908 19.662-13.793-.005-.006 0-.011 0-.017l-39.975.392s-.571 22.257-1.084 44.695z"/><path fill="#7a4036" d="M46.543 62.43a7.151 7.151 0 0 1 4.524 3.493c-.707-1.34-.528-2.951-.458-4.466.074-1.516-.049-3.21-1.146-4.254l-2.92 5.228z"/><path fill="#fe4c40" d="m29.403 122.36-.096.89-.089.843-2.49 23.184c23.824 5.59 45.337-.851 48.62-2.797 2.375-1.405.359-14.704-.938-21.955a316.521 316.521 0 0 0-.268-1.488c-.362-1.939-.617-3.175-.617-3.175 1.86-.375 3.414-1.002 4.708-1.76 4.961-2.902 6.108-7.719 6.108-7.719s-.243-3.648-5.954-9.844c-1.847-2.004-5.182-4.571-9.378-6.956-3.39-1.936-7.24-3.63-9.764-4.472l-.004-.003a50.42 50.42 0 0 0-3.248-1.024c-2.719-.816-6.49-1.474-9.62-1.574a33.15 33.15 0 0 0-.554-.015c-.209-.006-.415-.006-.624-.006-.332 0-.66.006-.99.015-.03 0-.061.003-.092.003-.316.013-.633.028-.95.05-3.003.22-5.47.78-8.581 2.025-3.12 1.248-6.188 2.928-9.049 4.841-5.394 3.6-6.327 9.729-8.186 13.414-1.568 3.104-2.137 5.379-2.137 5.379.729 6.442 14.193 12.143 14.193 12.143z"/><path fill="#ffcf3d" d="M25.533 91.423c.673.768 1.38 1.503 2.124 2.2A32.181 32.181 0 0 0 45.275 102c5.545.744 11.394-.043 16.247-2.821.077-.043.15-.086.228-.132 3.02-1.78 5.59-4.396 7.26-7.463-3.38-1.93-7.24-3.63-9.765-4.472a51.857 51.857 0 0 0-3.252-1.027c-2.719-.816-6.49-1.474-9.62-1.574a33.15 33.15 0 0 0-.554-.015c-.209-.006-.415-.006-.624-.006-.332 0-.66.006-.99.015-.03 0-.061.003-.092.003-.316.013-.633.028-.95.05-3.12.208-5.735.886-8.581 2.025-3.12 1.248-6.188 2.928-9.049 4.841z"/><path fill="#fec9ac" d="M73.248 115.633s-.793 9.782 11.83 14.3c12.622 4.517 23.662-28.704 23.662-28.704 1.096-.266 7.954-5.318 8.871-10.187.926-4.88-11.37 3.728-11.068 2.903.31-.837.159-4.09-.715-3.705-.869.387-2.247 5.9-2.247 5.9-.223-.045-14.569 18.346-15.336 19.331-.755.987-5.683-10.138-5.683-10.138l-9.314 10.3z"/><path fill="#ea241f" d="M59.245 87.11a54.998 54.998 0 0 0 2.277 12.068c2.493 8.111 6.82 15.666 12.62 21.86-.362-1.94-.617-3.176-.617-3.176 1.86-.375 3.414-1.002 4.708-1.76 4.961-2.902 6.108-7.719 6.108-7.719s-.243-3.648-5.954-9.844c-1.847-2.004-5.182-4.571-9.378-6.956-3.39-1.936-7.24-3.63-9.764-4.472z"/><path fill="#fcc230" d="M59.245 87.11a54.998 54.998 0 0 0 2.277 12.068c.077-.043.15-.086.228-.132 3.02-1.78 5.59-4.396 7.26-7.463-3.38-1.93-7.24-3.63-9.765-4.472z"/><path fill="#ea241f" d="M26.852 147.277c23.823 5.59 45.336-.851 48.618-2.797 2.376-1.405.36-14.704-.937-21.955-1.672 4.21-6.237 6.87-10.783 7.208-4.696.347-9.322-1.396-13.391-3.765-7.512-4.38-13.681-11.032-17.477-18.857l-3.452 16.14-2.578 24.026z"/><path fill="#fe4c40" d="M35.067 86.582c1.396 1.82 3.21 3.937 5.266 4.958a15.186 15.186 0 0 0 9.789 1.23c1.684-.36 3.353-1.043 4.546-2.281.962-1.005 1.555-3.037 1.448-4.405-5.789-1.737-8.738-1.286-11.517-1.577-3.501.128-6.358.801-9.532 2.075z"/><path fill="#fec9ac" d="m40.351 79.663-.326 7.924c2.158 6.209 13.792 3.203 12.746 1.439-.926-1.561-1.084-8.309-1.112-10.134v-.062s2.087-.384 2.64-3.445c.553-3.061-2.917-12.544-5.867-13.17-2.951-.628-9.15 5.163-9.224 5.9-.074.742 1.18 6.938 1.18 6.938s-2.582-1.881-3.283 1.07c-.7 2.95 3.246 3.54 3.246 3.54z"/><path fill="#7a4036" d="M50.362 58.212c-.102 2.136-1.446 4.11-3.271 5.224-1.382.844-2.99 1.231-4.454 1.924-1.463.694-2.874 1.843-3.174 3.434-.21 1.118.163 2.26.618 3.302.454 1.043.652 2.234.816 3.359-1.175-1.264-3.13-.89-3.67.258-3.017-1.397-4.571-3.765-5.446-6.973-.368-1.35-.485-2.787-.182-4.153.302-1.367 1.046-2.658 2.173-3.487 1.405-1.033 3.226-1.263 4.958-1.46-.092-.955.251-1.944.916-2.637s1.639-1.076 2.598-1.024c.624.035 1.237.243 1.86.197.778-.058 1.482-.515 2.001-1.097.334-.374.837-1.703 1.284-1.816.476-.121 1.356.835 1.631 1.147a5.438 5.438 0 0 1 1.342 3.802z"/><path fill="#7a4036" d="M46.636 66.274c-.264.01-.608-.414-.314-1.24a2.694 2.694 0 0 1 1.663-1.292c.873-.08 1.2.359 1.122.619-.068.295-.39.449-.773.68a1.34 1.34 0 0 0-.84.652c-.32.315-.548.588-.858.581zM41.24 69.62c-.264.015-.615-.39-.322-1.18a2.429 2.429 0 0 1 1.644-1.16c.842-.009 1.106.457 1.001.707-.098.285-.408.42-.747.615-.318.06-.575.241-.74.521-.297.254-.528.5-.836.497zM51.83 75.447c-.288.093-.591-.127-1.12-.202-.428-.176-.908-.09-1.372.222-.598.274-1.02.483-1.261.294-.217-.159-.237-.714.512-1.411.793-.534 1.715-.71 2.62-.355.503.267.75.67.804.95.055.289-.049.45-.184.502zM50.354 73.026c.015-.145.017-.276.182-.464.077-.091.18-.192.314-.3.094-.093.019-.102.003-.127l-.855-.593c-.687-.622-.913-1.094-.745-1.336s.685-.19 1.512.23l.713.496.57.398c.233.176.362.366.426.582a1.02 1.02 0 0 1-.207.924c-.235.263-.769.389-.964.443a2.07 2.07 0 0 1-.478.03c-.26-.015-.488-.124-.471-.283zM45.185 71.46c.285.323.703.415.934.212.23-.206.184-.633-.105-.956-.285-.32-.703-.415-.934-.209-.23.206-.184.633.105.953zM49.504 68.152c.286.323.704.415.934.212.23-.206.185-.633-.104-.956-.286-.32-.704-.415-.935-.209-.23.206-.184.633.105.953z"/><path fill="#ea241f" d="M23.304 114.045h16.037v1H23.304z" transform="rotate(-77.077 31.322 114.545)"/><path fill="#ffab90" d="M41.845 80.88c2.034 1.307 4.198 2.502 6.571 2.967a9.65 9.65 0 0 0 3.452.061c-.172-2.333-.203-4.617-.21-5.016l-.008-.01a14.391 14.391 0 0 1-9.805 1.999z" opacity=".52"/><path fill="#ffab90" d="M39.842 76.704c.072-.367-.107-.77-.427-.963s-.758-.164-1.05.07c-.192.153-.32.401-.283.644.029.19.15.35.265.502l.661.862c.101.132.212.271.37.322.222.07.473-.07.578-.277.104-.207.083-.46-.002-.676" opacity=".52"/><path fill="#fec9ac" d="M46.564 136.304c-1.3.444-5.445.04-7.748.144-7.566.344-18.907-1.306-23.403-6.009a12.383 12.383 0 0 1-1.664-2.152c-3.38-5.538 4.119-20.326 4.119-20.326 4.153 5.088 7.697 10.165 11.952 12.077-.215.294-1.334 3.662-1.628 4.885-.004.03-.005.054.006.074.189 1.4 13.51 4.67 13.51 4.67s1.364-.023 2.47-1.274c1.11-1.252 3.186-3.636 4.24-2.658 1.048.984-3.88 6.084-1.738 4.45 1.773-1.348 8.444-2.795 10.364-2.798.393-.005.686.083.81.292.76 1.208-5.71 6.71-11.29 8.625z"/><path fill="#ea241f" d="m29.526 122.36-.096.89-.089.843 3.778-17.363c-3.077 1.672-7.438 2.102-10.832 1.241-2.757-.7-2.946-.995-4.817-3.134-1.568 3.104-2.137 5.379-2.137 5.379.729 6.442 14.193 12.143 14.193 12.143z"/><path fill="#d1dcf8" d="M241.354 67.398v34.42h-35.362c-4.128 0-7.491-3.362-7.491-7.49v-19.44c0-4.133 3.363-7.49 7.491-7.49h35.362z"/><path fill="#f3f6fd" d="M282.047 99.085h-75.73a5.08 5.08 0 0 1-5.08-5.08V75.21a5.08 5.08 0 0 1 5.08-5.08h75.73a5.08 5.08 0 0 1 5.08 5.08v18.797a5.08 5.08 0 0 1-5.08 5.079z"/><path fill="#d1dcf8" d="M229.627 74.721h26.562v1.841h-26.562zM229.627 79.297h34.574v1.262h-34.574zM229.627 82.663h18.938v1.262h-18.938zM229.627 86.029h9.712v1.262h-9.712zM254.149 82.663h26.901v1.262h-26.901zM243.612 86.029h37.439v1.262h-37.439zM268.572 79.297h12.479v1.262h-12.479z"/><path fill="#fcc230" d="m231.96 90.056.55 1.695h1.782l-1.441 1.048.55 1.694-1.441-1.047-1.442 1.047.55-1.694-1.441-1.048h1.782zM237.972 90.056l.551 1.695h1.782l-1.442 1.048.551 1.694-1.442-1.047-1.441 1.047.55-1.694-1.441-1.048h1.782zM243.985 90.056l.55 1.695h1.783l-1.442 1.048.55 1.694-1.44-1.047-1.443 1.047.551-1.694-1.442-1.048h1.782z"/><path fill="#d1dcf8" d="m249.998 90.056.55 1.695h1.783l-1.442 1.048.55 1.694-1.441-1.047-1.442 1.047.551-1.694-1.442-1.048h1.782zM256.01 90.056l.551 1.695h1.783l-1.442 1.048.55 1.694-1.441-1.047-1.442 1.047.55-1.694-1.44-1.048h1.781z"/><circle cx="216.167" cy="84.979" r="9.514" fill="#d1dcf8"/><path fill="#71c687" d="M181.412 206.036c1.393-5.4-.538-11.254 1.074-16.612 1.145-3.807 4.037-7.154 4.019-11.13-.004-.837-.159-1.712-.673-2.373-.8-1.03-2.263-1.288-3.559-1.154-3.688.38-6.738 3.299-8.245 6.686-1.506 3.388-1.723 7.195-1.739 10.902-.014 3.523.133 7.047.442 10.556.157 1.787.36 3.589.945 5.285.378 1.097.925 2.15 1.676 3.039.904 1.07 1.4 1.22 2.54.378 1.809-1.334 2.966-3.43 3.52-5.577z"/><path fill="#71c687" d="M153.303 188.406c.459 1.617 1.657 2.939 3.03 3.908 2.742 1.936 6.268 2.686 8.64 5.114 1.732 1.775 2.579 4.212 3.332 6.576a209.324 209.324 0 0 1 3.685 12.995c.905-4.646 1.814-9.35 1.559-14.076a28.876 28.876 0 0 0-1.606-8.052c-1.067-3.02-2.663-5.888-4.914-8.166-2.25-2.279-5.185-3.941-8.357-4.387-1.523-.214-3.444-.07-4.308 1.373-.882 1.474-1.557 2.965-1.06 4.715z"/><path fill="#61ba76" d="m172.38 227.41-.634-.018a100.268 100.268 0 0 0-1.344-19.974 66.52 66.52 0 0 0-.741-3.823l-.114-.036c.018-.06.042-.12.06-.185-.693-2.94-1.709-6.106-3.364-8.939-2.497-4.29-6.25-7.307-10.282-8.274l.15-.622c4.2 1.01 8.095 4.135 10.682 8.574 1.488 2.545 2.468 5.335 3.155 8a15.04 15.04 0 0 0-.741-8.92l.585-.24c1.35 3.275 1.518 7.051.472 10.439.051.246.366 1.537.765 3.919a101.053 101.053 0 0 1 1.35 20.099zM173.511 229.015l-.613-.17 2.408-8.671c.436-1.573.889-3.199 1.145-4.843.54-3.454.219-7.053.137-10.547a78.487 78.487 0 0 1 2.209-20.42l.617.15a77.868 77.868 0 0 0-2.19 20.255c.083 3.53.405 7.142-.144 10.66-.262 1.68-.72 3.325-1.162 4.915l-2.407 8.671z"/><path fill="#71c687" d="M200.305 189.148c-.357-1.277-1.228-2.397-2.585-2.488-1.117-.077-2.366.559-3.498 1.298-7.822 4.84-13.889 15.903-15.09 27.502-.2 1.944.743 3.5 2.048 3.653.13.015.265.041.404.082 1.08.324 2.243-.642 2.819-2.148 1.4-3.669 3.013-6.943 4.795-10.34a33.202 33.202 0 0 1 3.015-4.729c1.946-2.531 3.494-5.788 6.009-7.263.715-.436 1.9-.71 2.29-1.784.4-1.102.076-2.823-.207-3.783z"/><path fill="#61ba76" d="m195.914 195.84-4.547 1.445-.012-.03a65.849 65.849 0 0 0-7.337 14.818l.878-1.153.502.382-2.001 2.647a64.423 64.423 0 0 0-2.826 14.853l-.64-.048a65.81 65.81 0 0 1 4.284-19.065l-.639-8.616.633-.053.58 7.24a66.065 66.065 0 0 1 4.093-8.238 9.403 9.403 0 0 1-.843-5.156l.633.077a8.822 8.822 0 0 0 .604 4.422 64.18 64.18 0 0 1 6.1-8.508l.484.412a63.983 63.983 0 0 0-3.955 5.174l3.812-1.213.197.61z"/><path fill="#e4ecf9" d="M183.136 242.505c-1.03 1.902-3.04 3.067-5.203 3.067h-3.614a5.9 5.9 0 0 1-4.732-2.354 4.892 4.892 0 0 1-.465-.713c-2.792-5.146-2.678-14.465-2.589-17.092h19.186c.095 2.627.203 11.946-2.583 17.092z"/><path fill="#d1dcf8" d="M183.136 242.505c-1.03 1.902-3.04 3.067-5.203 3.067h-3.614a5.9 5.9 0 0 1-4.732-2.354c1.703-.02 3.418-.627 4.694-1.686 1.947-1.615 2.952-4.065 4.04-6.355a59.027 59.027 0 0 1 5.846-9.764h1.552c.095 2.627.203 11.946-2.583 17.092z"/></svg>