<svg xmlns="http://www.w3.org/2000/svg" enable-background="new 0 0 450 450" viewBox="0 0 450 450"><path fill="#1a3a49" d="M9.342 388.464H438.85v4H9.342z"/><path fill="#3a6dc9" d="M318.63 361.182h-92.552c9.237-8.93 13.932-19.384 16.617-29.479 1.66-6.255 2.55-12.367 3.272-17.892h52.774c.723 5.525 1.613 11.637 3.272 17.892 2.686 10.095 7.38 20.55 16.617 29.479z"/><path d="M302.013 331.703h-59.318c1.66-6.255 2.55-12.367 3.272-17.892h52.774c.723 5.525 1.613 11.637 3.272 17.892z" opacity=".05"/><path fill="#3a6dc9" d="M391.85 139.589v157.724H153.13V139.589c0-7.497 6.079-13.576 13.575-13.576h211.578c7.488 0 13.566 6.079 13.566 13.576z"/><path fill="#fff" d="M163.701 286.741V139.59a3.008 3.008 0 0 1 3.004-3.004h211.578a3.003 3.003 0 0 1 2.995 3.004V286.74H163.7z"/><path fill="#1c5ab5" d="M391.85 297.313v15.84c0 7.496-6.08 13.575-13.567 13.575H166.705c-7.496 0-13.575-6.079-13.575-13.576v-15.84h238.72z"/><circle cx="272.356" cy="311.357" r="6.198" fill="#fff"/><path fill="#1c5ab5" d="M326.02 363.902c0 .75-.3 1.43-.8 1.92-.49.5-1.17.8-1.92.8H221.4c-1.5 0-2.71-1.22-2.71-2.72 0-.75.3-1.43.79-1.92.49-.5 1.17-.8 1.92-.8h101.9c1.5 0 2.72 1.22 2.72 2.72z"/><path fill="#070d2b" d="M435.097 275.83v106.54a6.317 6.317 0 0 1-6.319 6.318h-79.993a6.317 6.317 0 0 1-6.32-6.319V275.83a6.317 6.317 0 0 1 6.32-6.319h79.993a6.317 6.317 0 0 1 6.319 6.32z"/><path fill="#11153a" d="M425.777 275.83v106.54a6.317 6.317 0 0 1-6.318 6.318h-79.994a6.317 6.317 0 0 1-6.319-6.319V275.83a6.317 6.317 0 0 1 6.32-6.319h79.993a6.317 6.317 0 0 1 6.318 6.32z"/><path fill="#fff" d="M418.852 282.806v17.15a2.236 2.236 0 0 1-2.237 2.232h-74.311a2.235 2.235 0 0 1-2.232-2.233v-17.15a2.235 2.235 0 0 1 2.232-2.232h74.31a2.236 2.236 0 0 1 2.238 2.233z"/><circle cx="348.335" cy="291.381" r="2.859" fill="#a7abc6"/><path fill="#d7daf4" d="M411.074 288.94c0 .284-.115.54-.302.728a1.023 1.023 0 0 1-.728.302h-39.692a1.03 1.03 0 0 1-.727-1.757c.187-.187.444-.302.727-.302h39.692c.568 0 1.03.462 1.03 1.03zM411.074 293.82c0 .284-.115.54-.302.728a1.023 1.023 0 0 1-.728.302h-39.692a1.03 1.03 0 0 1-.727-1.757c.187-.187.444-.302.727-.302h39.692c.568 0 1.03.462 1.03 1.03z"/><path fill="#fe6081" d="M410.044 287.911h-21.263v2.06h21.263c.284 0 .54-.115.728-.303.187-.187.302-.444.302-.727a1.03 1.03 0 0 0-1.03-1.03z"/><path fill="#3a6dc9" d="M410.044 292.791h-29.948v2.059h29.948c.284 0 .54-.114.728-.302.187-.187.302-.444.302-.727a1.03 1.03 0 0 0-1.03-1.03z"/><circle cx="356.055" cy="291.381" r="2.859" fill="#a7abc6"/><path fill="#a7abc6" d="M357.275 290.447h5.071v1.868h-5.071z"/><path fill="#fff" d="M418.852 308.956v17.15a2.236 2.236 0 0 1-2.237 2.233h-74.311a2.235 2.235 0 0 1-2.232-2.233v-17.15a2.235 2.235 0 0 1 2.232-2.232h74.31a2.236 2.236 0 0 1 2.238 2.232z"/><circle cx="348.335" cy="317.531" r="2.859" fill="#a7abc6"/><path fill="#d7daf4" d="M411.074 315.091c0 .284-.115.54-.302.728a1.023 1.023 0 0 1-.728.302h-39.692a1.03 1.03 0 0 1-.727-1.757c.187-.188.444-.302.727-.302h39.692c.568 0 1.03.462 1.03 1.03zM411.074 319.971c0 .284-.115.54-.302.728a1.023 1.023 0 0 1-.728.302h-39.692a1.03 1.03 0 0 1-.727-1.757c.187-.188.444-.302.727-.302h39.692c.568 0 1.03.462 1.03 1.03z"/><path fill="#fe6081" d="M410.044 314.062h-21.263v2.059h21.263c.284 0 .54-.115.728-.302a1.03 1.03 0 0 0-.728-1.757z"/><path fill="#3a6dc9" d="M410.044 318.942h-29.948v2.059h29.948c.284 0 .54-.115.728-.302a1.03 1.03 0 0 0-.728-1.757z"/><circle cx="356.055" cy="317.531" r="2.859" fill="#a7abc6"/><path fill="#a7abc6" d="M357.275 316.597h5.071v1.868h-5.071z"/><path fill="#fff" d="M418.852 335.107v17.15a2.236 2.236 0 0 1-2.237 2.233h-74.311a2.235 2.235 0 0 1-2.232-2.233v-17.15a2.235 2.235 0 0 1 2.232-2.232h74.31a2.236 2.236 0 0 1 2.238 2.232z"/><circle cx="348.335" cy="343.682" r="2.859" fill="#a7abc6"/><path fill="#d7daf4" d="M411.074 341.242c0 .284-.115.54-.302.728a1.023 1.023 0 0 1-.728.302h-39.692a1.03 1.03 0 0 1-.727-1.757c.187-.188.444-.302.727-.302h39.692c.568 0 1.03.462 1.03 1.03zM411.074 346.122c0 .284-.115.54-.302.728a1.023 1.023 0 0 1-.728.302h-39.692a1.03 1.03 0 0 1-.727-1.757c.187-.188.444-.302.727-.302h39.692c.568 0 1.03.462 1.03 1.03z"/><path fill="#fe6081" d="M410.044 340.213h-21.263v2.059h21.263c.284 0 .54-.115.728-.302a1.03 1.03 0 0 0-.728-1.757z"/><path fill="#3a6dc9" d="M410.044 345.093h-29.948v2.059h29.948c.284 0 .54-.115.728-.302a1.03 1.03 0 0 0-.728-1.757z"/><circle cx="356.055" cy="343.682" r="2.859" fill="#a7abc6"/><path fill="#a7abc6" d="M357.275 342.748h5.071v1.868h-5.071z"/><path fill="#fff" d="M340.072 360.049h56.301v17.577h-56.301z"/><path fill="#0c8ff9" d="M344.181 362.848h6.549v5.024h-6.549z"/><path fill="#fe6081" d="M344.181 369.802h6.549v5.024h-6.549zM352.781 362.848h6.549v5.024h-6.549z"/><path fill="#0c8ff9" d="M352.781 369.802h6.549v5.024h-6.549zM361.381 362.848h6.549v5.024h-6.549z"/><path fill="#fe6081" d="M361.381 369.802h6.549v5.024h-6.549zM369.981 362.848h6.549v5.024h-6.549z"/><path fill="#0c8ff9" d="M369.981 369.802h6.549v5.024h-6.549zM378.581 362.848h6.549v5.024h-6.549z"/><path fill="#fe6081" d="M378.581 369.802h6.549v5.024h-6.549z"/><path fill="#0c8ff9" d="M404.621 360.049h14.231v5.311h-14.231z"/><path fill="#fe6081" d="M404.621 368.837h14.231v5.311h-14.231zM139.874 280.83c-2.876 20.084-10.204 12.152-10.204 12.152l-22.668-31.548-6.244-30.612-4.262-32.22c11.071 3.972 46.244 62.213 43.378 82.228z"/><path fill="#b94768" d="m108.546 239.234 14.242 34.612-25.471-18.808z"/><path fill="#3a6dc9" d="m77.656 387.968-.298-1.722-13.107-75.725h50.12l1.906 77.447z"/><path fill="#1c5ab5" d="m64.25 310.521 13.108 75.725 6.14-75.725z"/><path fill="#3a6dc9" d="M27.558 387.968v-77.447h55.94l-13.603 77.447z"/><path fill="#eae8fe" d="M113.918 315.43h-83.96s1.673-34.042.959-42.116c-1.65-18.784-13.275-50.587-7.753-62.594 1.836-4.01 19.608-13.757 19.608-13.757l11.4-3.02 24.089-1.06 11.714 2.917s10.015 5.128 14.223 11.37c7.276 10.775 7.664 47.09 7.675 65.757.008 6.936 1.336 30.447 2.045 42.503z"/><path fill="#fe6081" d="M25.382 275.636c.66 7.503.571 27.868.348 45.144-.2 14.947-.497 27.578-.497 27.578h9.648c18.62 0 44.027.982 44.712-19.577.685-20.533-3.468-73.457-3.924-82.083-1.717-32.504-21.499-52.753-21.499-52.753l-11.4 3.018s-21.893 8.75-23.8 15.117c-1.967 6.546-2.064 13.774-1.255 21.21 1.566 14.568 6.568 29.908 7.667 42.346zM87.21 260.819l5.05 55.63c1.269 17.71 9.857 31.911 27.613 31.911-1.127-14.53-6.626-65.824-6.637-75.286-.012-18.667-.562-52.927-8.71-67.005-3.07-5.304-9.55-8.794-14.55-10.269-2.061-.607-8.339-2.076-8.339-2.076l5.574 67.095z"/><path fill="#b94768" d="M25.382 275.636c.66 7.503.571 27.868.348 45.144l49.303-14.704.89-21.746-36.352-9.332s2.027-32.636 1.67-37.849c-.618-9.03-8.609-20.112-8.609-20.112L17.715 233.29c1.566 14.568 6.568 29.908 7.667 42.346z"/><path fill="#fdd1c4" d="M73.166 287.365s17.741-9.268 20.67-7.42c2.892 1.837-5.085 7.62-5.085 7.62"/><path fill="#070d2b" d="M86.269 326.553h40.213a3.57 3.57 0 0 0 3.494-2.84l11.179-53.556a3.57 3.57 0 0 0-3.495-4.3H97.447a3.57 3.57 0 0 0-3.494 2.84l-11.179 53.556a3.57 3.57 0 0 0 3.495 4.3z"/><path fill="#fdd1c4" d="M88.751 287.565c2.053-.242 17.322-2.017 16.319 1.812-.363 1.391-3.383 2.999-4.731 3.34 4.167.101 10.08 1.357 9.696 3.261-.536 2.65-5.597 2.4-7.362 2.231 1.794.236 6.939 1.132 5.882 3.615-.644 1.511-4.853 1.315-6.8 1.387 1.42.46 5.066 3.639 2.409 4.83-4.075 1.836-30.28-2.414-30.28-2.414l-.718-18.262"/><path fill="#fe6081" d="M22.716 207.777s18.525 6.984 16.257 41.924c-.494 7.603-5.648 29.75-5.648 29.75l42.599 4.879-.89 21.746c-20.8.819-53.371 5.442-63.078-6.358-5.06-6.151-4.482-84.09 10.76-91.941z"/><path fill="#fec3bd" d="M75.847 206.615c-11.188-.487-21.66-12.33-21.676-12.673-.414-8.184-1.774-26.606-3.64-32.456-.414-1.288.796-2.499 2.084-2.092l27.48 8.566a1.662 1.662 0 0 1 1.11 2.007 33.788 33.788 0 0 0-.766 3.967c-.062.469-.11.93-.156 1.39-.351 3.912-.031 7.473.398 10.082.094.57.211 1.561.352 2.701v.008c.335 2.929.453 4.68.578 5.109.062.21.56 13.666-5.764 13.391z"/><path fill="#f18b89" d="M81.033 188.107v.008s-15.226-5.61-17.914-10.432c-3.548-6.364 14.938-3.28 14.938-3.28s.969.398 2.226.921c-.351 3.912-.031 7.473.398 10.082.094.57.211 1.561.352 2.701z"/><path fill="#fec3bd" d="M84.24 183.019c-15.115 4.073-28.61-11.146-32.304-17.48v-.007a38.22 38.22 0 0 1-1.325-2.472 1.626 1.626 0 0 0-.564-.647c-1.952-1.307-10.795-7.615-8.575-13.21 1.45-3.642 3.927-4.073 5.751-3.793 1.073.165 2.008-.778 1.863-1.854-3.93-29.22 28.253-27.954 37.108-14.766.39.578.79 1.289 1.187 2.116 5.764 11.784 13.096 47.736-3.141 52.113z"/><path fill="#0e1738" d="M53.934 184.358c-.139-.183-.277-.368-.415-.552-5.003-6.688-9.618-13.725-13.67-21.028-2.656-4.787-5.124-9.754-6.798-14.979-2.025-6.318-1.827-12.816-2.012-19.389-.052-1.83-.098-3.702.455-5.448.553-1.746 1.826-3.375 3.596-3.846 1.527-.406 3.137.09 4.717.072 1.58-.018 3.436-.952 3.428-2.532-.007-1.27-1.215-2.21-1.548-3.434-.344-1.26.33-2.63 1.35-3.447 1.018-.818 2.32-1.185 3.599-1.455a32.225 32.225 0 0 1 17.017 1.046c1.957.671 3.92 1.545 5.987 1.475 2.035-.069 3.91-1.045 5.784-1.841a35.462 35.462 0 0 1 15.914-2.748c4.889.292 17.409 8.298 14.071 18.02-1.768 5.151-3.723 8.385-9.157 8.754s-10.76-1.397-15.92-3.141c-.141 3.293-3.534 5.687-6.823 5.913-3.289.225-6.454-1.142-9.466-2.48.752 2.122-.019 4.69-1.816 6.047-1.354 1.023-3.121 1.253-4.739.838-1.218-.313-2.901-.777-2.96 1.237l-.246 8.377a1.668 1.668 0 0 1-3.234.526l-1.291-3.517a1.643 1.643 0 0 0-.913-.96c-1.558-.637-5.408-1.598-7.372 3.337-2.22 5.595 6.623 11.903 8.575 13.21.244.164.435.383.564.647.23.477.673 1.35 1.325 2.48l1.417 5.541c.404 1.58.581 13.277.581 13.277z"/><ellipse cx="71.307" cy="151.772" fill="#0e1738" rx="1.848" ry="2.772" transform="rotate(-2.623 71.307 151.772)"/><path fill="#0e1738" d="M68.5 147.649a.5.5 0 0 1-.313-.892c3.582-2.855 5.835-.895 5.928-.81a.5.5 0 0 1-.666.746c-.079-.067-1.755-1.452-4.639.846a.497.497 0 0 1-.31.11z"/><ellipse cx="86.925" cy="151.772" fill="#0e1738" rx="1.848" ry="2.772" transform="rotate(-2.623 86.925 151.772)"/><path fill="#0e1738" d="M84.117 147.649a.5.5 0 0 1-.312-.892c3.582-2.855 5.833-.895 5.928-.81a.5.5 0 0 1-.666.746c-.08-.067-1.756-1.451-4.64.846a.497.497 0 0 1-.31.11z"/><path fill="#f18b89" d="M82.293 166.263a.499.499 0 0 1-.333-.874c.528-.47.83-1.093.85-1.755a2.36 2.36 0 0 0-.712-1.744 7.244 7.244 0 0 0-.73-.608c-.176-.135-.353-.27-.52-.413-1.181-1.004-1.976-2.412-2.298-4.072-.281-1.45-.192-2.905-.107-4.312a.5.5 0 1 1 .998.06c-.081 1.346-.166 2.736.09 4.061.28 1.435.958 2.646 1.964 3.501.155.131.318.256.481.38.281.216.572.439.83.697a3.35 3.35 0 0 1 1.003 2.48c-.028.94-.448 1.818-1.184 2.473a.498.498 0 0 1-.332.126zM77.684 173.936c-2.38 0-4.737-1.247-6.06-3.227a.5.5 0 1 1 .83-.556c1.182 1.768 3.31 2.858 5.445 2.779a.506.506 0 0 1 .518.481.5.5 0 0 1-.481.518 7.227 7.227 0 0 1-.252.005z"/><path fill="#fec3bd" d="M133.861 273.768a2.92 2.92 0 0 1 2.123-.794l4.792.297a2.976 2.976 0 0 1 2.869 3.082 2.997 2.997 0 0 1-3.083 2.869 2.97 2.97 0 0 1 2.866 3.066 2.983 2.983 0 0 1-3.073 2.875 2.962 2.962 0 0 1 2.86 3.076 2.972 2.972 0 0 1-3.067 2.866 2.964 2.964 0 0 1 2.86 3.076 2.962 2.962 0 0 1-3.076 2.859l-4.791-.296a2.948 2.948 0 0 1-2.85-3.069c.023-.813.379-1.55.943-2.073a2.92 2.92 0 0 1 2.123-.793 2.973 2.973 0 0 1-2.859-3.076c.03-.822.386-1.56.942-2.072a2.92 2.92 0 0 1 2.124-.794l-2.113-.084a2.964 2.964 0 0 1-1.907-5.142 2.903 2.903 0 0 1 2.115-.8l2.118.075a2.962 2.962 0 0 1-2.859-3.076 2.988 2.988 0 0 1 .943-2.072z"/><path fill="#82cafa" d="M348.291 216.802H196.688c-4.594 0-8.331-3.738-8.331-8.332v-26.995c0-4.595 3.737-8.332 8.331-8.332h151.603c4.594 0 8.332 3.737 8.332 8.332v26.995c0 4.594-3.738 8.332-8.332 8.332zm-151.603-41.66a6.339 6.339 0 0 0-6.331 6.333v26.995a6.339 6.339 0 0 0 6.331 6.332h151.603a6.339 6.339 0 0 0 6.332-6.332v-26.995a6.339 6.339 0 0 0-6.332-6.332H196.688z"/><path fill="#82cafa" d="M223.977 187.257c1.372.698 2.436 1.685 3.19 2.96.755 1.277 1.132 2.75 1.132 4.419 0 1.67-.385 3.146-1.156 4.43-.77 1.284-1.854 2.275-3.25 2.973s-3.01 1.048-4.84 1.048h-7.222v-16.878h7.391c1.798 0 3.383.35 4.755 1.048zm-1.842 10.677c.706-.818 1.06-1.902 1.06-3.25s-.377-2.44-1.132-3.274c-.755-.835-1.733-1.252-2.937-1.252h-2.287v9.004h2.527c1.14 0 2.063-.41 2.77-1.228zM245.38 187.028c1.405.755 2.504 1.794 3.299 3.118.794 1.324 1.192 2.813 1.192 4.466 0 1.67-.398 3.174-1.192 4.514-.795 1.34-1.894 2.392-3.298 3.154-1.405.763-2.974 1.144-4.708 1.144-1.749 0-3.322-.381-4.718-1.144a8.446 8.446 0 0 1-3.286-3.154c-.795-1.34-1.192-2.845-1.192-4.514 0-1.653.397-3.142 1.192-4.466.794-1.324 1.89-2.363 3.286-3.118 1.396-.754 2.969-1.132 4.718-1.132 1.734 0 3.303.378 4.708 1.132zm-6.693 3.635c-.634.402-1.14.951-1.516 1.65-.378.698-.566 1.472-.566 2.323 0 .85.188 1.63.566 2.335a4.433 4.433 0 0 0 1.516 1.674c.634.409 1.32.613 2.059.613a3.57 3.57 0 0 0 2.01-.613 4.256 4.256 0 0 0 1.457-1.662c.353-.698.53-1.48.53-2.347 0-.85-.177-1.625-.53-2.323a4.197 4.197 0 0 0-1.445-1.65c-.61-.4-1.284-.602-2.022-.602s-1.425.201-2.059.602zM254.156 186.21h5.37l4.525 9.365 4.502-9.366h5.37v16.878h-4.407V193.07l-3.852 8.354h-3.25l-3.852-8.354v10.016h-4.406v-16.878zM291.522 203.087l-.988-2.697h-6.813l-1.011 2.697h-5.152l7.198-16.878h5.152l6.958 16.878h-5.344zm-6.405-6.356h4.093l-2.022-5.514-2.07 5.514zM300.502 186.21h5.007v16.877h-5.007v-16.878zM322.194 186.21h4.575v16.877h-4.262l-7.15-9.39v9.39h-4.599v-16.878h4.286l7.15 9.414v-9.414z"/><path fill="#f7b3c2" d="M406.591 253.468h-54.259a3.184 3.184 0 0 1-3.183-3.183v-20.967a3.184 3.184 0 0 1 3.183-3.183h54.26a3.184 3.184 0 0 1 3.183 3.183v20.967a3.184 3.184 0 0 1-3.184 3.183z"/><path fill="#37c092" d="M360.276 145.274h-54.26a3.184 3.184 0 0 1-3.183-3.184v-20.966a3.184 3.184 0 0 1 3.184-3.183h54.259a3.184 3.184 0 0 1 3.184 3.183v20.966a3.184 3.184 0 0 1-3.184 3.184z"/><path fill="#fcc283" d="M186.173 172.806h-54.26a3.184 3.184 0 0 1-3.183-3.184v-20.966a3.184 3.184 0 0 1 3.184-3.183h54.259a3.184 3.184 0 0 1 3.183 3.183v20.966a3.184 3.184 0 0 1-3.183 3.184z"/><path fill="#47adf7" d="M272.49 240.861v25.214a3.836 3.836 0 0 1-3.836 3.824H203.41a3.834 3.834 0 0 1-3.823-3.824v-25.214a3.826 3.826 0 0 1 3.823-3.824h65.243a3.828 3.828 0 0 1 3.836 3.824z"/><path fill="#fff" d="M359.86 245.49c-.507 0-.935-.169-1.284-.507-.348-.338-.523-.766-.523-1.283 0-.539.175-.97.523-1.292s.777-.483 1.284-.483.935.161 1.284.483.523.753.523 1.292c0 .517-.175.945-.523 1.283a1.774 1.774 0 0 1-1.284.507zM369.289 245.57a6.85 6.85 0 0 1-2.456-.428 5.838 5.838 0 0 1-1.957-1.212 5.567 5.567 0 0 1-1.292-1.83 5.645 5.645 0 0 1-.46-2.299c0-.834.153-1.6.46-2.297a5.567 5.567 0 0 1 1.292-1.83 5.838 5.838 0 0 1 1.957-1.213 6.85 6.85 0 0 1 2.456-.428c.898 0 1.719.143 2.464.428a5.724 5.724 0 0 1 3.233 3.042 5.57 5.57 0 0 1 .467 2.298c0 .835-.156 1.604-.467 2.306a5.609 5.609 0 0 1-1.292 1.83c-.55.518-1.196.92-1.941 1.205-.745.285-1.566.428-2.464.428zm0-2.6c.422 0 .816-.073 1.18-.221.365-.148.682-.362.951-.642.27-.28.48-.615.634-1.006.153-.39.23-.824.23-1.3 0-.485-.077-.921-.23-1.307a3.043 3.043 0 0 0-.634-.998 2.733 2.733 0 0 0-.95-.642 3.111 3.111 0 0 0-1.181-.222 3.11 3.11 0 0 0-1.18.222 2.733 2.733 0 0 0-.952.642c-.27.28-.48.613-.633.998-.154.386-.23.822-.23 1.307 0 .476.076.91.23 1.3.152.39.364.726.633 1.006.27.28.587.494.951.642.365.148.758.222 1.18.222zM377.893 245.348v-11.093h5.071c1.014 0 1.888.164 2.623.491.734.328 1.301.8 1.703 1.419.402.618.602 1.35.602 2.194 0 .835-.2 1.556-.602 2.164-.402.607-.969 1.072-1.703 1.394s-1.609.483-2.623.483h-3.328l1.395-1.315v4.263h-3.138zm3.138-3.93-1.395-1.442h3.138c.655 0 1.143-.143 1.465-.428s.484-.681.484-1.189c0-.517-.161-.919-.484-1.204s-.81-.428-1.465-.428h-3.138l1.395-1.442v6.133zm3.724 3.93-2.758-4.041h3.344l2.773 4.04h-3.36zM395.958 245.57c-.877 0-1.69-.14-2.44-.42a5.63 5.63 0 0 1-1.942-1.197 5.564 5.564 0 0 1-1.275-1.83c-.307-.702-.46-1.476-.46-2.322 0-.845.153-1.618.46-2.32.306-.704.734-1.314 1.283-1.831s1.202-.917 1.957-1.197c.756-.28 1.582-.42 2.48-.42 1.046 0 1.981.175 2.805.523.824.349 1.506.85 2.044 1.506l-1.996 1.806a3.99 3.99 0 0 0-1.228-.927 3.405 3.405 0 0 0-1.466-.309c-.476 0-.909.074-1.3.222a2.73 2.73 0 0 0-.998.642 2.97 2.97 0 0 0-.642.998c-.153.386-.23.822-.23 1.307 0 .465.077.893.23 1.284a2.827 2.827 0 0 0 1.632 1.656c.386.153.811.23 1.276.23s.919-.077 1.363-.23c.444-.153.892-.414 1.347-.784l1.759 2.202a7.2 7.2 0 0 1-2.203 1.046 8.765 8.765 0 0 1-2.456.365zm1.886-1.823v-4.183h2.773v4.595l-2.773-.412zM141.821 161.699c.265.26.397.594.397 1.004 0 .42-.132.762-.397 1.027-.265.265-.607.397-1.027.397-.41 0-.748-.132-1.013-.397-.265-.265-.397-.607-.397-1.027 0-.41.132-.745.397-1.004.265-.26.602-.39 1.013-.39.42 0 .762.13 1.027.39zM151.47 153.496h2.849v10.512h-2.654l-4.454-5.848v5.848h-2.864v-10.512h2.67l4.452 5.863v-5.863zM156.838 153.496h8.591v2.4h-5.473v1.649h4.964v2.4h-4.964v1.663h5.623v2.4h-8.741v-10.512zM167.033 153.496h9.237v2.49h-3.059v8.022h-3.134v-8.022h-3.044v-2.49zM214.69 256.882c.299.293.448.67.448 1.131 0 .473-.15.859-.447 1.157-.299.299-.684.448-1.157.448-.462 0-.842-.15-1.14-.448-.298-.298-.448-.684-.448-1.157 0-.461.15-.838.448-1.131.298-.293.678-.44 1.14-.44.473 0 .858.147 1.157.44zM224.772 250.777c-.512-.287-1.01-.43-1.495-.43a2.63 2.63 0 0 0-1.435.405c-.428.27-.766.644-1.013 1.123-.248.478-.371 1.016-.371 1.613s.123 1.134.371 1.612c.247.479.585.856 1.013 1.132a2.59 2.59 0 0 0 1.435.413c.45 0 .932-.123 1.444-.371a4.701 4.701 0 0 0 1.377-1.013l2.026 2.161a7.186 7.186 0 0 1-2.322 1.672c-.906.417-1.804.625-2.693.625-1.182 0-2.249-.267-3.2-.802a5.809 5.809 0 0 1-2.238-2.22c-.54-.947-.81-2.005-.81-3.176 0-1.148.275-2.187.827-3.115a5.874 5.874 0 0 1 2.28-2.187c.968-.53 2.054-.794 3.26-.794.888 0 1.778.192 2.667.574.89.383 1.632.895 2.23 1.537l-2.027 2.415a4.243 4.243 0 0 0-1.326-1.174zM238.924 248.219c.985.53 1.756 1.258 2.313 2.187s.836 1.973.836 3.132c0 1.171-.278 2.227-.836 3.167s-1.328 1.677-2.313 2.212c-.985.535-2.085.802-3.301.802-1.228 0-2.33-.267-3.31-.802s-1.748-1.272-2.306-2.212-.835-1.996-.835-3.167c0-1.16.278-2.204.835-3.132s1.326-1.658 2.306-2.187c.98-.53 2.082-.794 3.31-.794 1.216 0 2.316.265 3.301.794zm-4.695 2.55c-.445.281-.8.667-1.064 1.156s-.396 1.034-.396 1.63c0 .597.132 1.143.396 1.638.265.496.62.887 1.064 1.174s.926.43 1.444.43c.507 0 .977-.143 1.41-.43s.774-.676 1.022-1.165c.247-.49.371-1.04.371-1.647 0-.596-.124-1.14-.37-1.63a2.945 2.945 0 0 0-1.015-1.156 2.527 2.527 0 0 0-1.418-.422c-.518 0-.999.14-1.444.422zM244.235 247.645h3.766l3.174 6.569 3.158-6.57h3.766v11.839h-3.09v-7.026l-2.702 5.86h-2.28l-2.702-5.86v7.026h-3.09v-11.838zM314.263 134.014c.294.29.442.663.442 1.119 0 .467-.148.848-.442 1.143-.295.295-.676.442-1.144.442-.456 0-.831-.147-1.126-.442-.295-.295-.442-.676-.442-1.143 0-.456.147-.829.442-1.119.295-.289.67-.433 1.126-.433.468 0 .849.144 1.144.433zM320.028 123.668c.323.323.484.74.484 1.252 0 .511-.161.929-.484 1.251-.322.323-.74.484-1.251.484-.512 0-.932-.161-1.26-.484-.328-.322-.492-.74-.492-1.251 0-.512.164-.93.492-1.252.328-.322.748-.484 1.26-.484.511 0 .929.162 1.251.484zm-2.92 3.838h3.371v9.079h-3.37v-9.079zM331.318 127.798c.495.284.878.687 1.151 1.21.273.523.41 1.13.41 1.82v5.757h-3.372v-4.79c0-.445-.12-.801-.359-1.068-.24-.267-.553-.4-.943-.4-.456.01-.817.178-1.084.5-.267.323-.4.746-.4 1.269v4.489h-3.372v-9.079h3.371v1.402c.323-.5.726-.882 1.21-1.143s1.043-.392 1.677-.392c.645 0 1.215.141 1.71.425zM339.712 126.906c-.173.155-.26.367-.26.634v.433h1.887v2.153h-1.886v6.459h-3.338v-6.459h-1.235v-2.153h1.235v-.834c0-.945.328-1.696.985-2.253.656-.556 1.518-.834 2.586-.834a6.66 6.66 0 0 1 2.053.334l-.367 2.503c-.434-.145-.757-.217-.968-.217-.29 0-.52.078-.692.234zM350.033 127.965a4.225 4.225 0 0 1 1.76 1.627c.418.701.627 1.519.627 2.454 0 .923-.21 1.738-.626 2.444a4.208 4.208 0 0 1-1.761 1.636c-.757.383-1.641.575-2.653.575-1.013 0-1.9-.192-2.662-.575-.762-.384-1.352-.93-1.77-1.636s-.625-1.52-.625-2.444c0-.935.209-1.753.626-2.454a4.21 4.21 0 0 1 1.769-1.627c.762-.384 1.649-.576 2.662-.576 1.012 0 1.896.192 2.653.576zm-3.855 2.653c-.3.374-.45.86-.45 1.46 0 .613.15 1.102.45 1.47.3.366.701.55 1.202.55.489 0 .884-.184 1.185-.55.3-.368.45-.857.45-1.47 0-.6-.15-1.086-.45-1.46a1.45 1.45 0 0 0-1.185-.559c-.5 0-.902.187-1.202.56z"/><path fill="#f9dae0" d="M152.088 90.525a.683.683 0 0 1-.484-.2c-7.764-7.764-20.395-7.764-28.159 0a.684.684 0 1 1-.968-.969c8.297-8.297 21.798-8.297 30.095 0a.684.684 0 0 1-.484 1.17z"/><path fill="#f9dae0" d="M149.191 93.421a.682.682 0 0 1-.484-.2c-6.167-6.166-16.198-6.166-22.365 0a.684.684 0 1 1-.968-.969 17.067 17.067 0 0 1 12.15-5.025c4.596 0 8.91 1.785 12.151 5.025a.684.684 0 0 1-.484 1.17z"/><path fill="#f9dae0" d="M146.295 96.318a.683.683 0 0 1-.484-.2c-4.57-4.57-12.003-4.57-16.573 0a.684.684 0 1 1-.968-.969c5.103-5.103 13.406-5.103 18.51 0a.684.684 0 0 1-.485 1.169z"/><path fill="#f9dae0" d="M143.398 99.215a.683.683 0 0 1-.484-.2c-2.971-2.973-7.807-2.973-10.779 0a.684.684 0 1 1-.968-.97c3.505-3.504 9.21-3.504 12.715 0a.684.684 0 0 1-.484 1.17zM139.839 105.873a3.282 3.282 0 0 1-4.629 0 3.273 3.273 0 0 1 0-4.643 3.256 3.256 0 0 1 4.629 0 3.273 3.273 0 0 1 0 4.643z"/><circle cx="425.777" cy="141.134" r="15.121" fill="#f9dae0"/><path fill="#fff" d="M425.777 151.99c-5.985 0-10.854-4.87-10.854-10.855 0-5.986 4.87-10.855 10.854-10.855s10.855 4.87 10.855 10.855-4.87 10.854-10.855 10.854zm0-20.71c-5.434 0-9.854 4.42-9.854 9.855s4.42 9.854 9.854 9.854c5.434 0 9.855-4.42 9.855-9.854s-4.42-9.855-9.855-9.855z"/><path fill="#fff" d="M425.777 151.99c-3.464 0-6.177-4.769-6.177-10.855s2.713-10.855 6.177-10.855c3.464 0 6.178 4.768 6.178 10.855s-2.714 10.854-6.178 10.854zm0-20.71c-2.806 0-5.177 4.513-5.177 9.855s2.37 9.854 5.177 9.854c2.807 0 5.178-4.513 5.178-9.854s-2.371-9.855-5.178-9.855z"/><path fill="#fff" d="M425.277 130.78h1v20.709h-1z"/><path fill="#fff" d="M415.721 137.926h20.052v1h-20.052zM415.721 143.343h20.052v1h-20.052z"/><circle cx="321.359" cy="73.93" r="16.394" fill="#82cafa"/><circle cx="323.919" cy="71.727" r="6.303" fill="#fff"/><circle cx="323.919" cy="71.727" r="3.609" fill="#82cafa"/><path fill="#fff" d="m319.324 74.404-5.04 5.433a1.55 1.55 0 0 0 2.27 2.106l5.04-5.433-2.27-2.106z"/><circle cx="232.83" cy="98.066" r="14.336" fill="#f7b3c2"/><circle cx="232.83" cy="92.911" r="2.969" fill="#fff"/><path fill="#fff" d="M240.327 104.77c-.066-4.09-3.39-7.388-7.497-7.388-4.106 0-7.43 3.298-7.497 7.388h14.994z"/></svg>