<svg xmlns="http://www.w3.org/2000/svg" enable-background="new 0 0 2000 2000" viewBox="0 0 2000 2000"><path fill="#ede4f1" fill-rule="evenodd" d="M1020.29,461.29c185.06,0,163.93,300.08,297.53,391.55c176.83,121.07,481.04,61.13,481.04,268.91
		c0,364.76-394.59,496.9-824.58,496.9c-430,0-796.89-202.3-668.86-566.1C433.45,688.76,590.3,461.29,1020.29,461.29z" clip-rule="evenodd"/><path fill="#d1c6e2" fill-rule="evenodd" d="M1445.37,1603.04c201.77,0,365.34,31.21,365.34,69.7s-163.57,69.69-365.34,69.69
		c-201.78,0-365.36-31.2-365.36-69.69S1243.59,1603.04,1445.37,1603.04z" clip-rule="evenodd"/><path fill="#d1c6e2" fill-rule="evenodd" d="M637.73,795.2c-10.77,47-30.39,83.48-58.86,109.41c11.58-108.4-59.26-117.5-85.23-186.33
		c-28.45-75.42,5.41-108.62-44.07-172.79c57.77,11.6,105.99,27.23,146.32,49.52c114.05,63.05,76.27,142.49,162.12,239.54
		c-36.75,3.79-70.9-8.96-102.43-38.24c-27.32-101.19-86.51-181.36-177.57-240.52c119.88,89.37,198.76,237.76,200.93,440.83
		c-11.01,6.83-19.51,3.59-25.47-9.73C664.72,923.58,659.48,859.69,637.73,795.2z" clip-rule="evenodd"/><path fill="#b4a5d0" fill-rule="evenodd" d="M621.24,973.18c11.91,53.59,9.57,100.68-7.02,141.27c-41.1-117.12-118.37-91.84-178.74-149.92
		c-66.12-63.64-47.55-114.33-129.79-156.11c65.08-16.32,122.29-23.83,174.66-20.62c148.09,9.06,148.08,109.21,283.81,167.02
		c-35.93,21.87-77.27,25.45-124.01,10.77c-77.57-90.69-177.64-144.18-300.18-160.48c166.96,33.27,320.61,147.28,422.13,355
		c-7.98,12.42-18.3,13.23-30.95,2.44C711.77,1091.97,675.13,1028.83,621.24,973.18z" clip-rule="evenodd"/><path fill="#9488c0" fill-rule="evenodd" d="M589.39,1173.23c37.89,48.55,58.2,97.38,60.95,146.48c-98.05-98.82-164.15-35.99-253.27-65.75
		c-97.64-32.6-103.24-92.89-206.67-95.6c58.05-47.89,112.4-83.05,166.99-105.03c154.36-62.17,202.61,39.29,367.93,32.46
		c-25.87,39.45-66.01,63.01-120.43,70.65c-122.26-54.49-249.38-60.48-381.36-17.95c185.15-46.73,395.71-5.25,598.6,156.25
		c-2.1,16.42-12.16,22.2-30.17,17.38C738.31,1249.96,670.79,1203.67,589.39,1173.23z" clip-rule="evenodd"/><path fill="#5a53a2" fill-rule="evenodd" d="M718.46,345.62h704.4c54.98,0,99.98,44.99,99.98,99.98v968.25c0,54.99-45,99.99-99.98,99.99h-704.4
		c-54.99,0-99.98-45-99.98-99.99V445.6C618.48,390.6,663.47,345.62,718.46,345.62z" clip-rule="evenodd"/><path fill="#d7cce5" fill-rule="evenodd" d="M718.46,373.87h704.4c39.44,0,71.71,32.28,71.71,71.73v968.25c0,39.45-32.28,71.73-71.71,71.73h-704.4
		c-39.45,0-71.73-32.28-71.73-71.73V445.6C646.73,406.15,679.01,373.87,718.46,373.87z" clip-rule="evenodd"/><polygon fill="#fff" fill-rule="evenodd" points="663.18 423.34 1362 368.33 1440.39 1364.13 741.56 1419.13" clip-rule="evenodd"/><polygon fill="#9488c0" fill-rule="evenodd" points="718.92 482.91 1330.96 434.35 1337.34 515.23 725.28 563.79" clip-rule="evenodd"/><path fill="#d7cce5" fill-rule="evenodd" d="M749.91,631.27l560.01-44.38c7.29-0.58,14.3,4.92,14.3,12.22v0.01c0,7.31-4.93,13.75-12.22,14.31l-560,44.38
		c-7.29,0.57-14.31-4.91-14.31-12.23l0,0C737.69,638.27,742.62,631.85,749.91,631.27L749.91,631.27z M753.64,678.54
		c-7.3,0.58-12.8,7.01-12.23,14.31l0,0c0.58,7.3,7.03,12.81,14.31,12.23l387.39-30.79c7.29-0.58,12.81-7.01,12.23-14.31l0,0
		c-0.58-7.3-7.02-12.81-14.31-12.23L753.64,678.54z" clip-rule="evenodd"/><rect width="79.86" height="79.86" x="748.52" y="755.21" fill="#9488c0" fill-rule="evenodd" clip-rule="evenodd" transform="rotate(-4.513 788.2 795.185)"/><path fill="#d7cce5" fill-rule="evenodd" d="M887.9,750.18l432.19-34.02c7.29-0.58,13.74,4.93,14.31,12.23l0,0c0.57,7.29-4.93,13.74-12.23,14.31
		l-432.18,34.01c-7.3,0.58-13.74-4.92-14.31-12.22l0,0C875.1,757.19,880.6,750.76,887.9,750.18L887.9,750.18z M891.62,797.46
		c-7.3,0.57-12.8,7.01-12.22,14.31l0,0c0.58,7.29,7.02,12.8,14.31,12.22l259.58-20.43c7.3-0.58,12.8-7.02,12.22-14.31l0,0
		c-0.57-7.3-7.01-12.8-14.31-12.23L891.62,797.46z" clip-rule="evenodd"/><rect width="79.86" height="79.86" x="758.69" y="884.48" fill="#9488c0" fill-rule="evenodd" clip-rule="evenodd" transform="rotate(-4.513 798.326 924.417)"/><path fill="#d7cce5" fill-rule="evenodd" d="M898.07,879.45l432.19-34.02c7.3-0.58,13.73,4.93,14.31,12.22v0.01c0.58,7.29-4.93,13.74-12.22,14.31
		l-432.19,34.01c-7.29,0.58-13.73-4.93-14.31-12.22l0,0C885.28,886.46,890.78,880.02,898.07,879.45L898.07,879.45z M901.8,926.73
		c-7.3,0.57-12.8,7.01-12.22,14.31h0.01c0.57,7.29,7.01,12.8,14.31,12.22l259.58-20.43c7.3-0.58,12.81-7.02,12.23-14.31l0,0
		c-0.58-7.3-7.02-12.8-14.31-12.23L901.8,926.73z" clip-rule="evenodd"/><rect width="79.86" height="79.86" x="768.87" y="1013.75" fill="#9488c0" fill-rule="evenodd" clip-rule="evenodd" transform="rotate(-4.513 808.422 1053.605)"/><path fill="#d7cce5" fill-rule="evenodd" d="M908.25,1008.72l432.19-34.02c7.29-0.58,13.74,4.93,14.31,12.22v0.01c0.57,7.29-4.93,13.74-12.23,14.3
		l-432.18,34.02c-7.3,0.58-13.74-4.93-14.32-12.22l0,0C895.45,1015.73,900.95,1009.29,908.25,1008.72L908.25,1008.72z M911.97,1056
		c-7.3,0.57-12.8,7.01-12.22,14.31l0,0c0.58,7.29,7.01,12.8,14.31,12.22l259.58-20.43c7.29-0.58,12.8-7.02,12.22-14.31l0,0
		c-0.58-7.3-7.01-12.81-14.31-12.23L911.97,1056z" clip-rule="evenodd"/><rect width="79.86" height="79.86" x="779.04" y="1143.02" fill="#9488c0" fill-rule="evenodd" clip-rule="evenodd" transform="rotate(-4.513 818.627 1182.92)"/><path fill="#d7cce5" fill-rule="evenodd" d="M918.43,1137.99l432.19-34.02c7.3-0.58,13.73,4.93,14.31,12.22l0,0c0.58,7.3-4.93,13.75-12.22,14.31
		l-432.19,34.02c-7.3,0.58-13.73-4.93-14.31-12.22l0,0C905.63,1145,911.13,1138.56,918.43,1137.99L918.43,1137.99z M922.15,1185.26
		c-7.3,0.58-12.8,7.02-12.23,14.31v0.01c0.57,7.29,7.01,12.8,14.31,12.22l259.58-20.43c7.3-0.58,12.8-7.02,12.23-14.31v-0.01
		c-0.58-7.29-7.02-12.8-14.31-12.22L922.15,1185.26z" clip-rule="evenodd"/><rect width="79.86" height="79.86" x="789.22" y="1272.29" fill="#9488c0" fill-rule="evenodd" clip-rule="evenodd" transform="rotate(-4.513 828.714 1312.084)"/><path fill="#d7cce5" fill-rule="evenodd" d="M928.6,1267.26l432.18-34.02c7.3-0.58,13.75,4.93,14.31,12.22l0,0c0.58,7.3-4.92,13.75-12.22,14.31
		l-432.19,34.02c-7.3,0.58-13.74-4.93-14.31-12.22l0,0C915.8,1274.27,921.3,1267.83,928.6,1267.26L928.6,1267.26z M932.32,1314.53
		c-7.3,0.58-12.8,7.02-12.22,14.31v0.01c0.57,7.29,7.01,12.8,14.31,12.22l259.58-20.43c7.29-0.58,12.8-7.02,12.22-14.31l0,0
		c-0.58-7.3-7.01-12.81-14.31-12.23L932.32,1314.53z" clip-rule="evenodd"/><path fill="#2b2870" fill-rule="evenodd" d="M895.68,301.5h123.88v-26.1c0-28.1,23-51.1,51.1-51.1l0,0c28.1,0,51.09,23,51.09,51.1v26.1h123.87
		c16.98,0,30.88,13.9,30.88,30.88v58.81c0,16.98-13.9,30.88-30.88,30.88H895.68c-16.98,0-30.87-13.9-30.87-30.88v-58.81
		C864.81,315.4,878.7,301.5,895.68,301.5L895.68,301.5z M1070.66,254.82c-12.49,0-22.61,10.13-22.61,22.61
		c0,12.48,10.12,22.61,22.61,22.61c12.48,0,22.6-10.13,22.6-22.61C1093.26,264.94,1083.15,254.82,1070.66,254.82z" clip-rule="evenodd"/><path fill="#2b2870" fill-rule="evenodd" d="M744.34,764.87c-2.83-3.78-2.07-9.15,1.71-11.98c3.78-2.83,9.15-2.07,11.99,1.71l30.42,40.55l71.83-72.75
		c3.32-3.38,8.74-3.42,12.12-0.1c3.37,3.31,3.42,8.74,0.1,12.11l-78.83,79.84c-0.3,0.29-0.62,0.58-0.97,0.84
		c-3.78,2.83-9.15,2.07-11.98-1.71L744.34,764.87z" clip-rule="evenodd"/><path fill="#2b2870" fill-rule="evenodd" d="M754.51,894.14c-2.83-3.78-2.07-9.16,1.71-11.98c3.78-2.85,9.15-2.07,11.98,1.71l30.41,40.55l71.83-72.76
		c3.31-3.37,8.74-3.41,12.12-0.1c3.37,3.32,3.42,8.75,0.1,12.12l-78.83,79.84c-0.3,0.29-0.63,0.58-0.98,0.84
		c-3.78,2.83-9.15,2.07-11.98-1.71L754.51,894.14z" clip-rule="evenodd"/><path fill="#2b2870" fill-rule="evenodd" d="M764.69,1023.39c-2.83-3.77-2.07-9.15,1.71-11.98c3.78-2.83,9.15-2.07,11.98,1.71l30.42,40.55l71.83-72.75
		c3.32-3.37,8.75-3.42,12.12-0.1c3.37,3.31,3.42,8.74,0.1,12.12l-78.82,79.84c-0.31,0.28-0.63,0.58-0.98,0.83
		c-3.78,2.85-9.15,2.07-11.98-1.71L764.69,1023.39z" clip-rule="evenodd"/><path fill="#071023" fill-rule="evenodd" d="M1537.36,750.3c32.29-4.19,56.67-1.97,67.1,13.53c-1.32,9.44-4.16,21.74-8.54,36.87
		c1.9,3.6,4.68,5.48,8.34,5.62c4.6-8.96,8.45-14.31,11.54-16.06c15.38,6.9,12.48,17.53-8.68,31.91c-1.24,4.95-2.44,9.05-3.58,12.3
		c19.03-4.26,34.96-21.29,37.2-28.66c22.2-43.77-2.56-62.25-15.82-69c-5.84-43.34-68.78-5.03-100.32-25.92
		C1512.09,728.2,1527.58,749.91,1537.36,750.3z" clip-rule="evenodd"/><path fill="#071023" fill-rule="evenodd" d="M1672.04,1695.3c18.72-6.58,20.22-16.23,30.31-20.94c10.16-4.74,11.33-13.19,1.4-22.37
		c-7.34,5.85-16.44,13.06-21.27,9.24c-3.22-2.55-14.13-2.38-16.3,1.34c-9.51,22.1-22.73,15.1-25.34,25.15
		C1640.54,1701.12,1663.45,1698.33,1672.04,1695.3z" clip-rule="evenodd"/><path fill="#071023" fill-rule="evenodd" d="M1511.3,1695.97c34.55-0.56,60.38-0.97,72.31-4.74c12.87-4.07,10.21-11.91,2.81-24.47
		c-32.57,14.98-23.88-3.07-39.12-0.78c-10.7,8.61-26.55,14.39-47.55,17.32C1490.88,1689.85,1494.49,1695.68,1511.3,1695.97z" clip-rule="evenodd"/><path fill="#fab688" fill-rule="evenodd" d="M1630.7,857.43c-5.52,0.39-14.23-0.66-15.76-2.63c-5.86-7.45-9.94-15.23-11.45-20.13
		c1.14-3.26,2.34-7.37,3.6-12.35c21.27-14.44,24.17-25.13,8.72-32.06c-3.12,1.75-6.98,7.13-11.6,16.13
		c-3.68-0.14-6.49-2.03-8.38-5.66c4.39-15.2,7.25-27.55,8.57-37.04c-10.48-15.57-34.97-17.79-67.42-13.59
		c-1.5,8.64-2.74,17.79-3.7,27.45c-5.74,5.28-5,24.88,0.28,47.45c-2.64,12.84,5.29,19.85,23.79,21.02
		c0.26,4.56-0.16,10.15-0.46,10.77c-0.46,0.99-2.1,1.94-4.38,2.75v0.01C1551.89,880.74,1577.96,880.03,1630.7,857.43z" clip-rule="evenodd"/><path fill="#f59b1d" fill-rule="evenodd" d="M1343.7,932.91c29.07,78.69,42.85,123.75,83.19,161.71c14.54-4.43,27.44-14.36,38.7-29.82
		c-0.6,49.73,0.64,99.22,3.72,148.47c29.45,13.96,68.55,13.07,117.3-2.7l19.77-24.35c5.07-0.98,16.61,4.62,22.14,13.18
		c46.29-35.33,77.51-73.31,95.94-111.02c-4.97-81.06-15.99-145-33.03-191.85c-8.62-13.26-28.86-26.28-60.73-39.08
		c-52.75,22.6-78.81,23.31-78.19,2.1c-15.51,5.1-36.09,14.11-61.74,27.03c-21.38,16.24-39.59,60.27-54.63,132.08
		c-21.9-34.79-44.89-68.83-73.8-99.03C1356.49,921.28,1349.64,925.59,1343.7,932.91L1343.7,932.91z M1617.03,1164.24
		c-15.35-50.47-6.87-112.73,25.42-186.79c8.13,36.54,16.92,72.5,26.36,107.89C1657.85,1090.55,1640.59,1116.86,1617.03,1164.24z" clip-rule="evenodd"/><path fill="#071023" fill-rule="evenodd" d="M1622.78,1230.02c-7.49-0.58-19.54-7.06-36.17-19.46c-48.75,15.77-87.85,16.67-117.3,2.7
		c-5.23,82.91,15.14,169.84,41.01,266.72c25.32,42.53,24.24,72.43,37.75,170.57c7.49,5.34,19.87,4.57,37.15-2.33
		c5.47-83.67,1.69-139.07-20.02-170.3c3.4-28.06-5.48-97.02-5.9-140.31c15.8,35.21,26.64,82.79,47.22,130.82
		c25.06,58.49,42.51,121.09,55.72,178.2c13.99,2.71,27.09,1.11,39.32-4.81c-14.04-93.85-29.59-158.45-46.67-193.78
		c0.65-92.28-8.13-175.17-26.37-248.65C1625.13,1208.06,1623.21,1218.26,1622.78,1230.02z" clip-rule="evenodd"/><path fill="#ea7924" fill-rule="evenodd" d="M1465.59,1064.8c1.61-48.29,5.48-87.88,11.62-118.76c-15.62,65.59-30.76,109.12-45.41,130.58
		c-9.25-0.29-19.79-6.25-33.99-16.93c8.54,12.92,17.76,24.72,29.08,34.94C1441.44,1090.19,1454.33,1080.26,1465.59,1064.8z" clip-rule="evenodd"/><path fill="#ea7924" fill-rule="evenodd" d="M1606.38,1186.21c2.83-7.02,6.39-14.35,10.65-21.96c-15.35-50.47-6.87-112.73,25.42-186.79
		c-46.97,66.77-60.28,137.95-39.96,213.54L1606.38,1186.21z" clip-rule="evenodd"/><path fill="#ed7d57" fill-rule="evenodd" d="M1578.68,841.55c-5.19,2.56-12.3,4.06-21.32,4.47c0.17,3.06,0.04,6.58-0.15,8.75
		C1566.28,853.03,1573.43,848.63,1578.68,841.55z" clip-rule="evenodd"/><path fill="#fab688" fill-rule="evenodd" d="M1583.17,1668.21c-1.74-5.71-2.4-11.86-1.97-18.47c-13.18,4.74-23.24,5.56-30.17,2.49
		c0.36,4.89-0.2,9.41-1.67,13.55C1561.34,1665.36,1555.87,1679.89,1583.17,1668.21L1583.17,1668.21z M1670.25,1660.11
		c4.15-1.1,10.02-0.63,12.23,1.12c4.32,3.41,12.05-1.98,18.88-7.36c-1.18-3.24-2.15-6.78-2.91-10.65
		c-8.24,3.46-16.85,4.99-25.87,4.62C1672.71,1652.76,1671.94,1656.84,1670.25,1660.11z" clip-rule="evenodd"/><path fill="#071023" fill-rule="evenodd" d="M1046.7,460.81c87.37-67.64,213.03-51.66,280.67,35.71c61.05,78.84,53.98,188.89-12.21,259.31l0.94,1.22
		c3.83,4.94,2.92,12.11-2.03,15.94L1282,797.83c-4.94,3.83-12.11,2.92-15.94-2.03l-0.95-1.21c-84.75,46.44-193.06,25.75-254.11-53.1
		C943.36,654.13,959.34,528.46,1046.7,460.81L1046.7,460.81z M1063.81,482.9c-75.18,58.21-88.93,166.32-30.72,241.49
		c58.2,75.17,166.32,88.93,241.49,30.72c75.16-58.2,88.92-166.32,30.72-241.49C1247.09,438.46,1138.98,424.7,1063.81,482.9z" clip-rule="evenodd"/><rect width="40.56" height="102.09" x="1309.01" y="774.73" fill="#6251a1" fill-rule="evenodd" clip-rule="evenodd" transform="rotate(-37.749 1329.421 825.808)"/><path fill="#2b2870" fill-rule="evenodd" d="M1315.25,840.78l32.08-24.84c4.94-3.83,12.11-2.91,15.94,2.04l57,73.6l0.09,0.11l123.1,158.99l0.02,0.03
		l34.1,44.04l123.12,159.02c3.83,4.94,2.92,12.11-2.03,15.94l-32.07,24.83c-4.94,3.83-12.11,2.91-15.94-2.03l-57.01-73.62l-0.08-0.1
		l-123.12-159.01l-34.1-44.04l-0.01-0.01l-123.12-159.01C1309.4,851.78,1310.31,844.6,1315.25,840.78z" clip-rule="evenodd"/><path fill="#fab688" fill-rule="evenodd" d="M1617.21,1217.21h0.01c5.37-10.46,11.43-18.9,18.18-25.31c-1.38-10.09-9.46-20.07-14.48-21.32l-19.22,9.31
		c-16.82,1.36-30.24,3.77-40.26,7.22c7.14,5.91,13.89,7.86,20.23,5.84c-8.26,5.9-12.58,9.99-12.96,12.27
		c11.11,21.9,20.73,32.42,28.86,31.56C1608.6,1229.46,1615.13,1222.93,1617.21,1217.21z" clip-rule="evenodd"/><path fill="#f59b1d" fill-rule="evenodd" d="M1707.72,1117.39c-18.68,27.99-44.77,55.72-79.19,81.99c-4.09-6.79-14.36-23.12-19.98-22.8
		c5.74-5.19,4.23-4.71,8.49-12.34c17.13-34.46,30.91-57.76,41.39-69.92C1670.85,1101.26,1687.28,1108.94,1707.72,1117.39z" clip-rule="evenodd"/><path fill="#fab688" fill-rule="evenodd" d="M1343.71,932.93c-0.99-2.44-4.53-12.2-8.42-21.75c-9.65-4.96-19.17-20.3-17.89-29.17
		c3.46-11.2,1.18-17.01,12.27-19.81c3.25,1.18,8.43,8.4,11.67,19.87c-3.85,7.27,3,13.26,6.83,18.25c4.47,7.29,1.43,1.85,6.58,10.01
		c2.02,4.22,5.81,7.86,6.8,10.16C1355.58,922.42,1349.78,925.58,1343.71,932.93z" clip-rule="evenodd"/><path fill="#ea7924" fill-rule="evenodd" d="M1500.86,995.66c34.18-0.27,74.48,3.77,120.95,15.48c5.95-11.36,12.83-22.59,20.65-33.69
		c-74.73-14.4-129.07-17.54-162.99-9.43L1500.86,995.66L1500.86,995.66z M1467.95,1189.14c31.92-2.93,65.12-4.24,99.63-3.94
		l-21.87-28.24c-27.01-0.35-53.34,0.86-78.99,3.62C1467.06,1170.11,1467.48,1179.62,1467.95,1189.14L1467.95,1189.14z
		 M1594.94,1095.89c-5.95-1.1-12.19-2.08-18.74-2.93l1.37,1.78l15.87,20.49C1593.67,1108.75,1594.18,1102.3,1594.94,1095.89
		L1594.94,1095.89z M1527.31,1133.19l-26.8-34.61c-13.41-0.05-25.08,0.99-35.02,3.14c0.08,10.75,0.23,21.49,0.47,32.21
		C1482.92,1131.69,1503.38,1131.44,1527.31,1133.19L1527.31,1133.19z M1543.48,1050.7l10.39,13.42c13.92,1.73,29.06,4.11,45.39,7.14
		c2.91-12.58,6.89-25.03,11.93-37.32c-32.36-8.58-63.22-13.7-92.6-15.39L1543.48,1050.7L1543.48,1050.7z M1516.36,886.01
		c33.49-5.37,71.42-3.84,113.82,4.61c-5.1-9.05-11.51-17.47-19.26-25.29c-36.85,13.53-56.28,12.74-58.24-2.37
		C1538.72,869.75,1526.61,877.42,1516.36,886.01L1516.36,886.01z M1640.86,915.24c-51.15-10.41-101.23-14.53-147.18-5.91
		c-6.31,10.19-14.19,27.48-16.99,39.39c44.04-12.66,87.12-8.76,167.98,6.48C1645.58,942.52,1643.01,926.51,1640.86,915.24z" clip-rule="evenodd"/><polygon fill="#f59b1d" fill-rule="evenodd" points="773.44 1431.69 456.18 1444.54 456.18 1755.32 773.44 1732.69" clip-rule="evenodd"/><polygon fill="#ea7924" fill-rule="evenodd" points="231.74 1425.57 456.18 1444.54 456.18 1755.32 231.74 1715.55" clip-rule="evenodd"/><polygon fill="#fbae22" fill-rule="evenodd" points="489.66 1424.49 231.74 1425.57 456.18 1444.54 773.44 1431.69" clip-rule="evenodd"/><polygon fill="#b97c2b" fill-rule="evenodd" points="323.73 1433.34 323.73 1533.7 364.19 1539.81 364.19 1436.77" clip-rule="evenodd"/><polygon fill="#b97c2b" fill-rule="evenodd" points="323.73 1633.9 323.73 1731.85 364.19 1739.15 364.19 1640.03" clip-rule="evenodd"/><polygon fill="#b97c2b" fill-rule="evenodd" points="632.03 1428.1 364.2 1436.77 343.96 1435.06 323.73 1433.34 610.87 1427.57" clip-rule="evenodd"/><polygon fill="#f59b1d" fill-rule="evenodd" points="833.76 1131.93 521.41 1127.4 521.41 1444.89 833.76 1428.26" clip-rule="evenodd"/><polygon fill="#ea7924" fill-rule="evenodd" points="300.43 1144.1 521.41 1127.4 521.41 1444.89 300.43 1425.29" clip-rule="evenodd"/><polygon fill="#b97c2b" fill-rule="evenodd" points="391 1137.25 391 1229.23 430.84 1231.08 430.84 1134.24" clip-rule="evenodd"/><polygon fill="#b97c2b" fill-rule="evenodd" points="391 1329.12 390.9 1433.31 430.8 1436.85 430.84 1329.75" clip-rule="evenodd"/><polygon fill="#f59b1d" fill-rule="evenodd" points="905.89 1563.5 699.23 1571.86 699.23 1774.3 905.89 1759.56" clip-rule="evenodd"/><polygon fill="#ea7924" fill-rule="evenodd" points="553.02 1559.51 699.23 1571.86 699.23 1774.3 553.02 1748.4" clip-rule="evenodd"/><polygon fill="#fbae22" fill-rule="evenodd" points="721.03 1558.8 553.02 1559.51 699.23 1571.86 905.89 1563.5" clip-rule="evenodd"/><polygon fill="#b97c2b" fill-rule="evenodd" points="612.94 1564.58 612.94 1629.95 639.31 1633.93 639.31 1566.8" clip-rule="evenodd"/><polygon fill="#b97c2b" fill-rule="evenodd" points="612.94 1695.22 612.94 1759.02 639.31 1763.77 639.31 1699.21" clip-rule="evenodd"/><polygon fill="#b97c2b" fill-rule="evenodd" points="813.77 1561.15 639.31 1566.8 626.12 1565.69 612.94 1564.58 799.99 1560.81" clip-rule="evenodd"/><polygon fill="#ea7924" fill-rule="evenodd" points="773.44 1431.69 773.44 1475.94 498.31 1495.95 498.23 1442.84 521.41 1444.89" clip-rule="evenodd"/></svg>