<svg width="1000" height="1000" viewBox="0 0 1000 1000" fill="none" xmlns="http://www.w3.org/2000/svg">
<path d="M950 728.944C949.998 739.434 946.868 749.686 941.01 758.388C935.151 767.089 926.83 773.846 917.111 777.794L519.846 939.179C513.482 941.763 506.75 943.063 500 943.063C493.25 943.063 486.518 941.763 480.154 939.179L82.8887 777.794C73.1697 773.846 64.849 767.089 58.9904 758.388C53.1318 749.686 50.0016 739.434 50 728.944L50.0176 280.526C50.0176 273.302 52.2324 266.411 56.1699 260.681C59.6328 255.601 64.4492 251.435 70.25 248.71L98.2344 235.597L500 398.81L901.678 235.632L930.154 248.921C935.659 251.576 940.369 255.631 943.813 260.681C947.75 266.411 949.965 273.302 949.965 280.526L950 728.944Z" fill="#D7DEE2"/>
<path d="M943.814 260.681L764.465 333.542L693.607 362.335L500.002 440.997H499.984L56.1719 260.681C59.6348 255.601 64.4512 251.435 70.252 248.71L98.2363 235.597L261.871 158.886L328.018 127.878L484.023 54.7355C496.189 51.2971 509.186 52.3515 520.639 57.7062L901.68 235.632L930.156 248.921C935.661 251.576 940.371 255.631 943.814 260.681Z" fill="#C3CACE"/>
<path d="M950 728.944C949.998 739.434 946.868 749.686 941.01 758.388C935.151 767.089 926.83 773.846 917.111 777.794L519.846 939.179C513.543 941.742 506.804 943.061 500 943.063V440.997L943.813 260.681C947.75 266.411 949.965 273.302 949.965 280.526L950 728.944Z" fill="#EBF2F6"/>
<path d="M764.461 333.542L693.604 362.335L261.867 158.886L328.014 127.878L764.461 333.542Z" fill="#D7DEE2"/>
<path d="M753.125 947.247C861.856 947.247 950 859.103 950 750.372C950 641.641 861.856 553.497 753.125 553.497C644.394 553.497 556.25 641.641 556.25 750.372C556.25 859.103 644.394 947.247 753.125 947.247Z" fill="#263238"/>
<path d="M792.9 750.372L815.2 728.072C826.184 717.088 826.184 699.281 815.2 688.297C804.217 677.314 786.409 677.314 775.426 688.297L753.126 710.598L730.825 688.297C719.842 677.314 702.034 677.314 691.051 688.297C680.066 699.281 680.066 717.088 691.051 728.072L713.351 750.372L691.051 772.672C680.066 783.656 680.066 801.463 691.051 812.447C696.542 817.939 703.741 820.685 710.937 820.685C718.134 820.685 725.332 817.939 730.823 812.447L753.126 790.148L775.428 812.449C780.919 817.941 788.117 820.686 795.314 820.686C802.51 820.686 809.709 817.941 815.2 812.449C826.184 801.465 826.184 783.658 815.2 772.673L792.9 750.372Z" fill="white"/>
</svg>
