<svg width="1000" height="1000" viewBox="0 0 1000 1000" fill="none" xmlns="http://www.w3.org/2000/svg">
<path d="M491.16 746.351H697.886C697.018 740.56 696.584 734.713 696.588 728.859C696.588 663.726 749.381 610.934 814.495 610.934V380.901C814.495 359.185 796.898 341.57 775.164 341.57H106.927C85.1932 341.569 67.5781 359.184 67.5781 380.901V707.018C67.5781 728.734 85.1932 746.349 106.927 746.349H491.16V746.351Z" fill="#D7DEE2"/>
<path d="M441.022 249.477C467.6 249.477 489.146 227.931 489.146 201.353C489.146 174.775 467.6 153.229 441.022 153.229C414.444 153.229 392.898 174.775 392.898 201.353C392.898 227.931 414.444 249.477 441.022 249.477Z" fill="#868EAF"/>
<path d="M814.501 846.772C879.626 846.772 932.421 793.978 932.421 728.853C932.421 663.728 879.626 610.934 814.501 610.934C749.376 610.934 696.582 663.728 696.582 728.853C696.582 793.978 749.376 846.772 814.501 846.772Z" fill="#D7DEE2"/>
<path d="M491.16 746.351H697.886C697.018 740.56 696.584 734.713 696.588 728.859C696.588 663.726 749.381 610.934 814.495 610.934V380.901C814.495 359.185 796.898 341.57 775.164 341.57H106.927C85.1932 341.569 67.5781 359.184 67.5781 380.901V707.018C67.5781 728.734 85.1932 746.349 106.927 746.349H336.922" stroke="#263238" stroke-width="20" stroke-miterlimit="10" stroke-linecap="round" stroke-linejoin="round"/>
<path d="M441.022 249.477C467.6 249.477 489.146 227.931 489.146 201.353C489.146 174.775 467.6 153.229 441.022 153.229C414.444 153.229 392.898 174.775 392.898 201.353C392.898 227.931 414.444 249.477 441.022 249.477Z" stroke="#263238" stroke-width="20" stroke-miterlimit="10" stroke-linecap="round" stroke-linejoin="round"/>
<path d="M814.501 846.772C879.626 846.772 932.421 793.978 932.421 728.853C932.421 663.728 879.626 610.934 814.501 610.934C749.376 610.934 696.582 663.728 696.582 728.853C696.582 793.978 749.376 846.772 814.501 846.772Z" stroke="#263238" stroke-width="20" stroke-miterlimit="10" stroke-linecap="round" stroke-linejoin="round"/>
<path d="M848.749 694.608L780.257 763.099M848.749 763.099L780.257 694.608M398.661 178.507L110.176 341.565M483.389 178.507L771.913 341.565M319.162 632.256L385.474 458.145C386.829 454.831 391.519 454.828 392.879 458.138L458.588 632.256M339.843 588.895H438.243M525.078 455.658V632.107C527.029 632.441 586.917 632.107 586.917 632.107M725.586 456.464H651.854V631.451H725.586M720.149 543.958H651.854M261.801 473.812C261.801 473.812 230.113 447.176 192.744 458.431C158.431 468.767 153.632 508.332 178.456 524.516C178.456 524.516 202.814 535.383 229.832 545.348C294.867 569.337 266.853 632.255 214.497 632.255C188.279 632.255 166.275 620.772 152.956 606.077" stroke="#263238" stroke-width="20" stroke-miterlimit="10" stroke-linecap="round" stroke-linejoin="round"/>
</svg>
