<svg xmlns="http://www.w3.org/2000/svg" enable-background="new 0 0 2500 2000" viewBox="0 0 2500 2000"><rect width="2500" height="2000" fill="none"/><path fill="#eef2fe" d="M1781.14,1342.03H694.05c-14,0-25.35-11.35-25.35-25.35V479.04c0-14,11.35-25.35,25.35-25.35h1087.1
		c14,0,25.35,11.35,25.35,25.35v837.63C1806.5,1330.68,1795.15,1342.03,1781.14,1342.03z"/><path fill="#3f517f" d="M1806.5,569.29H668.69v-90.25c0-14,11.35-25.35,25.35-25.35h1087.1c14,0,25.35,11.35,25.35,25.35V569.29z"/><circle cx="738.53" cy="511.49" r="17.36" fill="#ff9c39"/><circle cx="798.98" cy="511.49" r="17.36" fill="#f0566e"/><circle cx="859.42" cy="511.49" r="17.36" fill="#fff"/><rect width="1137.8" height="96.34" x="668.69" y="569.29" fill="#aec9ff"/><path fill="#fff" d="M764.96,603.98h-53.27c-2.4,0-4.35-1.95-4.35-4.35l0,0c0-2.4,1.95-4.35,4.35-4.35h53.27
			c2.4,0,4.35,1.95,4.35,4.35l0,0C769.31,602.03,767.36,603.98,764.96,603.98z"/><path fill="#fff" d="M764.96,621.81h-53.27c-2.4,0-4.35-1.95-4.35-4.35l0,0c0-2.4,1.95-4.35,4.35-4.35h53.27
			c2.4,0,4.35,1.95,4.35,4.35l0,0C769.31,619.86,767.36,621.81,764.96,621.81z"/><path fill="#fff" d="M764.96,639.65h-53.27c-2.4,0-4.35-1.95-4.35-4.35v0c0-2.4,1.95-4.35,4.35-4.35h53.27
			c2.4,0,4.35,1.95,4.35,4.35v0C769.31,637.7,767.36,639.65,764.96,639.65z"/><path fill="#aec9ff" d="M1001.45,1208.17H745.12c-6.5,0-11.78-5.27-11.78-11.78V889.35c0-6.5,5.27-11.78,11.78-11.78h256.34
		c6.5,0,11.78,5.27,11.78,11.78v307.04C1013.23,1202.89,1007.96,1208.17,1001.45,1208.17z"/><path fill="#eef2fe" d="M979,1086.98H767.57c-6.86,0-12.42-5.56-12.42-12.42V911.8c0-6.86,5.56-12.42,12.42-12.42H979
		c6.86,0,12.42,5.56,12.42,12.42v162.76C991.43,1081.42,985.86,1086.98,979,1086.98z"/><path fill="#eef2fe" d="M981.79,1142.76H764.78c-5.32,0-9.63-4.31-9.63-9.63l0,0c0-5.32,4.31-9.63,9.63-9.63h217.01
		c5.32,0,9.63,4.31,9.63,9.63l0,0C991.43,1138.45,987.11,1142.76,981.79,1142.76z"/><path fill="#eef2fe" d="M912.67,1186.36H764.78c-5.32,0-9.63-4.31-9.63-9.63l0,0c0-5.32,4.31-9.63,9.63-9.63h147.89
		c5.32,0,9.63,4.31,9.63,9.63l0,0C922.3,1182.05,917.99,1186.36,912.67,1186.36z"/><path fill="#239f95" d="M922.3,1086.98H767.57c-3.79,0-7.18-1.69-9.46-4.37l80.61-118.5l62.52,91.91L922.3,1086.98z"/><path fill="#239f95" d="M991.43,1055.91v18.65c0,6.86-5.57,12.42-12.43,12.42h-98.82l21.06-30.96l45.13-66.35L991.43,1055.91z"/><circle cx="907.43" cy="947.89" r="14.87" fill="#ff9c39"/><path fill="none" stroke="#7dafff" stroke-miterlimit="10" stroke-width="2" d="M979,1086.98H767.57c-6.86,0-12.42-5.56-12.42-12.42V911.8c0-6.86,5.56-12.42,12.42-12.42H979
		c6.86,0,12.42,5.56,12.42,12.42v162.76C991.43,1081.42,985.86,1086.98,979,1086.98z"/><g><path fill="#6290ff" d="M1726.58,1433.29h-249.35c-8.43,0-15.27-6.84-15.27-15.27V892.84c0-8.43,6.84-15.27,15.27-15.27h249.35
		c8.43,0,15.27,6.84,15.27,15.27v525.18C1741.85,1426.46,1735.01,1433.29,1726.58,1433.29z"/><line x1="1466.62" x2="1736.94" y1="881.87" y2="1429.24" fill="none" stroke="#3f517f" stroke-miterlimit="10" stroke-width="3"/><line x1="1737.19" x2="1466.87" y1="881.87" y2="1429.24" fill="none" stroke="#3f517f" stroke-miterlimit="10" stroke-width="3"/></g><g><path fill="#6290ff" d="M1648.3,825.5H826.89c-5.46,0-9.89-4.43-9.89-9.89v-108c0-5.46,4.43-9.89,9.89-9.89h821.41
		c5.46,0,9.89,4.43,9.89,9.89v108C1658.19,821.07,1653.76,825.5,1648.3,825.5z"/><line x1="820.05" x2="1655.77" y1="822.74" y2="701.15" fill="none" stroke="#3f517f" stroke-miterlimit="10" stroke-width="3"/><line x1="820.05" x2="1655.77" y1="700.49" y2="822.07" fill="none" stroke="#3f517f" stroke-miterlimit="10" stroke-width="3"/></g><g><path fill="#ff9c39" d="M1915.69,842.24h-136.68c-6.1,0-11.05-4.95-11.05-11.05V718.94c0-6.1,4.95-11.05,11.05-11.05h136.68
		c6.1,0,11.05,4.95,11.05,11.05v112.25C1926.74,837.29,1921.8,842.24,1915.69,842.24z"/><path fill="#fff" d="M1838.05,791.86h-27.86l-5.32,12.86h-14.23l26.75-60.01h13.72l26.83,60.01h-14.57L1838.05,791.86z
			 M1833.68,781.32l-9.52-22.97l-9.52,22.97H1833.68z"/><path fill="#fff" d="M1898.32,763.02c3.83,3.4,5.74,8.53,5.74,15.39v26.32h-12.52v-5.74c-2.52,4.29-7.2,6.43-14.06,6.43
			c-3.54,0-6.62-0.6-9.21-1.8c-2.6-1.2-4.59-2.86-5.96-4.97c-1.37-2.11-2.06-4.51-2.06-7.2c0-4.29,1.61-7.66,4.84-10.12
			c3.23-2.46,8.21-3.69,14.96-3.69h10.63c0-2.91-0.89-5.16-2.66-6.73c-1.77-1.57-4.43-2.36-7.97-2.36c-2.46,0-4.87,0.39-7.24,1.16
			c-2.37,0.77-4.39,1.82-6.04,3.13l-4.8-9.34c2.51-1.77,5.53-3.14,9.04-4.11c3.51-0.97,7.13-1.46,10.84-1.46
			C1889,757.92,1894.49,759.62,1898.32,763.02z M1886.92,794.82c1.77-1.06,3.03-2.61,3.77-4.67v-4.71h-9.17
			c-5.49,0-8.23,1.8-8.23,5.4c0,1.71,0.67,3.07,2.01,4.07c1.34,1,3.19,1.5,5.53,1.5C1883.11,796.41,1885.14,795.88,1886.92,794.82z"/></g><g><circle cx="687.96" cy="1355.72" r="67.18" fill="#f0566e"/><polygon fill="#fff" points="668.9 1379.55 668.9 1331.89 715.61 1355.72"/></g><g><path fill="#aec9ff" d="M1365.76,1208.17h-256.34c-6.5,0-11.78-5.27-11.78-11.78V889.35c0-6.5,5.27-11.78,11.78-11.78h256.34
		c6.5,0,11.78,5.27,11.78,11.78v307.04C1377.54,1202.89,1372.27,1208.17,1365.76,1208.17z"/><path fill="#eef2fe" d="M1343.31,1086.98h-211.44c-6.86,0-12.42-5.56-12.42-12.42V911.8c0-6.86,5.56-12.42,12.42-12.42h211.44
		c6.86,0,12.42,5.56,12.42,12.42v162.76C1355.74,1081.42,1350.17,1086.98,1343.31,1086.98z"/><path fill="#eef2fe" d="M1346.1,1142.76h-217.01c-5.32,0-9.63-4.31-9.63-9.63l0,0c0-5.32,4.31-9.63,9.63-9.63h217.01
		c5.32,0,9.63,4.31,9.63,9.63l0,0C1355.74,1138.45,1351.42,1142.76,1346.1,1142.76z"/><path fill="#eef2fe" d="M1276.97,1186.36h-147.89c-5.32,0-9.63-4.31-9.63-9.63l0,0c0-5.32,4.31-9.63,9.63-9.63h147.89
		c5.32,0,9.63,4.31,9.63,9.63l0,0C1286.61,1182.05,1282.3,1186.36,1276.97,1186.36z"/><path fill="#239f95" d="M1286.61,1086.98h-154.73c-3.79,0-7.18-1.69-9.46-4.37l80.61-118.5l62.52,91.91L1286.61,1086.98z"/><path fill="#239f95" d="M1355.74,1055.91v18.65c0,6.86-5.57,12.42-12.43,12.42h-98.82l21.06-30.96l45.13-66.35L1355.74,1055.91z"/><circle cx="1271.74" cy="947.89" r="14.87" fill="#ff9c39"/><path fill="none" stroke="#7dafff" stroke-miterlimit="10" stroke-width="2" d="M1343.31,1086.98h-211.44c-6.86,0-12.42-5.56-12.42-12.42V911.8c0-6.86,5.56-12.42,12.42-12.42h211.44
		c6.86,0,12.42,5.56,12.42,12.42v162.76C1355.74,1081.42,1350.17,1086.98,1343.31,1086.98z"/></g></svg>