<svg width="1000" height="1000" viewBox="0 0 1000 1000" fill="none" xmlns="http://www.w3.org/2000/svg">
<path d="M920.369 947.992C920.369 948.271 730.628 948.509 496.609 948.509C262.589 948.509 72.8086 948.271 72.8086 947.992C72.8086 947.714 262.51 947.476 496.609 947.476C730.708 947.476 920.369 947.694 920.369 947.992Z" fill="#263238"/>
<path d="M885.358 148.189H108.242V197.976H885.358V148.189Z" fill="#E0E0E0"/>
<path d="M885.237 243.706H108.121V679.535H885.237V243.706Z" fill="white"/>
<path d="M108.242 197.598H214.953L225.51 166.819H398.49L409.048 197.598H885.358V244.76H108.242V197.598Z" fill="#EBEBEB"/>
<path d="M133.89 168.053C133.89 169.209 133.547 170.339 132.905 171.3C132.263 172.261 131.35 173.011 130.282 173.453C129.214 173.896 128.038 174.011 126.904 173.786C125.77 173.56 124.729 173.003 123.911 172.186C123.094 171.368 122.537 170.327 122.312 169.193C122.086 168.059 122.202 166.884 122.644 165.816C123.087 164.747 123.836 163.835 124.797 163.192C125.758 162.55 126.889 162.207 128.045 162.207C128.813 162.204 129.574 162.354 130.285 162.647C130.995 162.94 131.641 163.37 132.184 163.913C132.727 164.457 133.158 165.102 133.451 165.812C133.743 166.523 133.893 167.284 133.89 168.053Z" fill="#263238"/>
<path d="M151.964 168.053C151.964 169.209 151.622 170.339 150.979 171.3C150.337 172.261 149.424 173.011 148.356 173.453C147.288 173.896 146.112 174.011 144.979 173.786C143.845 173.56 142.803 173.003 141.986 172.186C141.168 171.368 140.611 170.327 140.386 169.193C140.16 168.059 140.276 166.884 140.718 165.816C141.161 164.747 141.91 163.835 142.871 163.192C143.833 162.55 144.963 162.207 146.119 162.207C146.887 162.204 147.649 162.354 148.359 162.647C149.069 162.94 149.715 163.37 150.258 163.913C150.802 164.457 151.232 165.102 151.525 165.812C151.818 166.523 151.967 167.284 151.964 168.053Z" fill="#263238"/>
<path d="M170.035 168.053C170.035 169.209 169.692 170.339 169.05 171.3C168.407 172.261 167.494 173.011 166.426 173.453C165.358 173.896 164.183 174.011 163.049 173.786C161.915 173.56 160.873 173.003 160.056 172.186C159.238 171.368 158.682 170.327 158.456 169.193C158.231 168.059 158.346 166.884 158.789 165.816C159.231 164.747 159.98 163.835 160.942 163.192C161.903 162.55 163.033 162.207 164.189 162.207C164.958 162.204 165.719 162.354 166.429 162.647C167.14 162.94 167.785 163.37 168.329 163.913C168.872 164.457 169.302 165.102 169.595 165.812C169.888 166.523 170.037 167.284 170.035 168.053Z" fill="#263238"/>
<path d="M799.463 235.376H266.308C262.385 235.376 258.623 233.817 255.848 231.043C253.074 228.269 251.516 224.506 251.516 220.583C251.516 216.66 253.074 212.897 255.848 210.123C258.623 207.349 262.385 205.79 266.308 205.79H799.463C803.387 205.79 807.149 207.349 809.923 210.123C812.698 212.897 814.256 216.66 814.256 220.583C814.256 224.506 812.698 228.269 809.923 231.043C807.149 233.817 803.387 235.376 799.463 235.376Z" fill="#FAFAFA"/>
<path d="M279.072 222.551V227.562H276.547V222.949C276.547 221.537 275.891 220.961 274.777 220.961C273.664 220.961 272.67 221.716 272.67 223.307V227.641H270.145V215.513H272.67V219.728C273.429 219.037 274.427 218.666 275.453 218.694C275.958 218.66 276.464 218.739 276.935 218.924C277.405 219.11 277.829 219.397 278.175 219.766C278.521 220.135 278.781 220.576 278.936 221.058C279.091 221.54 279.138 222.05 279.072 222.551Z" fill="#E0E0E0"/>
<path d="M286.988 227.124C286.395 227.503 285.703 227.697 285 227.681C284.568 227.74 284.128 227.701 283.714 227.566C283.3 227.43 282.921 227.203 282.607 226.901C282.294 226.598 282.052 226.229 281.902 225.82C281.751 225.411 281.696 224.973 281.739 224.539V220.96H280.387V218.972H281.739V216.845H284.264V218.972H286.431V220.96H284.264V224.539C284.242 224.691 284.255 224.845 284.302 224.99C284.348 225.136 284.427 225.269 284.532 225.38C284.637 225.491 284.766 225.577 284.909 225.631C285.052 225.685 285.205 225.706 285.357 225.693C285.724 225.697 286.081 225.578 286.371 225.355L286.988 227.124Z" fill="#E0E0E0"/>
<path d="M293.785 227.124C293.19 227.499 292.499 227.692 291.796 227.681C291.365 227.74 290.925 227.701 290.511 227.566C290.096 227.43 289.718 227.203 289.404 226.901C289.09 226.598 288.849 226.229 288.699 225.82C288.548 225.411 288.493 224.973 288.536 224.539V220.96H287.184V218.972H288.536V216.845H291.061V218.972H293.248V220.96H291.061V224.539C291.043 224.69 291.058 224.843 291.106 224.987C291.154 225.131 291.233 225.262 291.337 225.372C291.442 225.482 291.569 225.568 291.71 225.623C291.851 225.679 292.003 225.702 292.154 225.693C292.527 225.697 292.89 225.578 293.188 225.355L293.785 227.124Z" fill="#E0E0E0"/>
<path d="M304.801 223.188C304.837 223.775 304.75 224.364 304.546 224.916C304.342 225.469 304.025 225.972 303.615 226.395C303.205 226.818 302.712 227.151 302.166 227.372C301.621 227.594 301.035 227.699 300.447 227.681C299.959 227.704 299.472 227.622 299.019 227.44C298.567 227.258 298.158 226.981 297.822 226.627V230.604H295.297V218.674H297.762V219.688C298.106 219.306 298.531 219.006 299.006 218.81C299.48 218.614 299.993 218.527 300.506 218.555C301.102 218.544 301.694 218.659 302.243 218.892C302.792 219.126 303.285 219.473 303.69 219.91C304.096 220.347 304.404 220.865 304.596 221.43C304.787 221.995 304.857 222.594 304.801 223.188ZM302.236 223.188C302.197 222.758 302.035 222.348 301.768 222.009C301.501 221.67 301.141 221.416 300.732 221.277C300.324 221.139 299.884 221.122 299.465 221.229C299.047 221.336 298.669 221.563 298.378 221.88C298.086 222.198 297.892 222.594 297.821 223.02C297.75 223.446 297.805 223.883 297.978 224.278C298.15 224.674 298.434 225.01 298.795 225.247C299.156 225.484 299.578 225.612 300.009 225.613C300.32 225.618 300.628 225.556 300.914 225.433C301.199 225.31 301.455 225.128 301.666 224.899C301.876 224.67 302.035 224.399 302.134 224.104C302.232 223.809 302.267 223.497 302.236 223.188Z" fill="#E0E0E0"/>
<path d="M305.873 220.265C305.917 219.876 306.102 219.517 306.394 219.256C306.685 218.996 307.063 218.852 307.454 218.852C307.845 218.852 308.222 218.996 308.514 219.256C308.806 219.517 308.991 219.876 309.035 220.265C309.06 220.487 309.037 220.712 308.969 220.926C308.901 221.139 308.789 221.335 308.64 221.502C308.491 221.669 308.308 221.803 308.103 221.894C307.899 221.986 307.678 222.033 307.454 222.033C307.23 222.033 307.009 221.986 306.804 221.894C306.6 221.803 306.417 221.669 306.268 221.502C306.119 221.335 306.007 221.139 305.939 220.926C305.87 220.712 305.848 220.487 305.873 220.265ZM305.873 226.09C305.917 225.702 306.102 225.343 306.394 225.082C306.685 224.821 307.063 224.677 307.454 224.677C307.845 224.677 308.222 224.821 308.514 225.082C308.806 225.343 308.991 225.702 309.035 226.09C309.06 226.313 309.037 226.538 308.969 226.751C308.901 226.964 308.789 227.161 308.64 227.328C308.491 227.495 308.308 227.628 308.103 227.72C307.899 227.811 307.678 227.858 307.454 227.858C307.23 227.858 307.009 227.811 306.804 227.72C306.6 227.628 306.417 227.495 306.268 227.328C306.119 227.161 306.007 226.964 305.939 226.751C305.87 226.538 305.848 226.313 305.873 226.09Z" fill="#E0E0E0"/>
<path d="M315.259 213.882H317.525L312.157 229.172H309.91L315.259 213.882Z" fill="#E0E0E0"/>
<path d="M320.45 213.882H322.697L317.349 229.172H315.082L320.45 213.882Z" fill="#E0E0E0"/>
<path d="M798.987 322.084H334.467C327.512 322.084 320.842 319.321 315.923 314.403C311.005 309.485 308.242 302.814 308.242 295.859C308.247 288.905 311.012 282.238 315.929 277.321C320.846 272.404 327.514 269.639 334.467 269.634H798.987C805.941 269.639 812.609 272.404 817.526 277.321C822.443 282.238 825.207 288.905 825.213 295.859C825.213 302.814 822.45 309.485 817.531 314.403C812.613 319.321 805.943 322.084 798.987 322.084Z" fill="#FAFAFA"/>
<path d="M798.985 322.084C802.691 322.004 806.342 321.179 809.722 319.658C813.047 318.127 816.019 315.923 818.449 313.185C820.878 310.448 822.714 307.235 823.839 303.752C824.781 300.643 825.145 297.388 824.913 294.149C824.666 290.522 823.664 286.986 821.97 283.77C820.075 280.246 817.403 277.2 814.156 274.862C810.608 272.306 806.469 270.691 802.127 270.17C799.82 269.972 797.503 269.906 795.188 269.971H787.951H721.165L334.505 270.11C329.863 270.124 325.309 271.387 321.323 273.769C317.407 276.107 314.183 279.445 311.983 283.44C309.783 287.435 308.685 291.944 308.802 296.504C308.92 301.063 310.248 305.51 312.651 309.387C315.054 313.263 318.445 316.431 322.476 318.565C326.458 320.628 330.897 321.654 335.38 321.547H464.976L638.81 321.666L756.118 321.825H787.931H796.222C798.091 321.825 799.045 321.825 799.045 321.825H796.222H787.931H756.118L638.81 322.004L464.976 322.104H362.301H335.38C330.729 322.224 326.124 321.156 321.999 319.002C316.719 316.21 312.526 311.731 310.088 306.279C307.65 300.827 307.107 294.715 308.545 288.919C309.984 283.122 313.322 277.974 318.027 274.295C322.732 270.616 328.533 268.618 334.505 268.619L721.264 269.275H788.05H795.287C797.629 269.218 799.972 269.291 802.306 269.494C806.725 270.043 810.933 271.706 814.534 274.325C817.692 276.588 820.307 279.525 822.191 282.922C824.076 286.319 825.182 290.093 825.43 293.97C825.639 297.26 825.248 300.561 824.276 303.712C823.374 306.462 822.031 309.048 820.3 311.367C817.603 315.023 814.007 317.92 809.861 319.777C807.334 320.888 804.652 321.606 801.908 321.905C799.94 322.084 798.985 322.084 798.985 322.084Z" fill="#263238"/>
<path d="M345.125 301.445L346.099 299.258C347.329 300.101 348.783 300.558 350.275 300.571C352.004 300.571 352.7 299.994 352.7 299.219C352.7 296.853 345.364 298.483 345.364 293.791C345.364 291.643 347.093 289.814 350.692 289.814C352.224 289.785 353.735 290.169 355.066 290.927L354.172 293.154C353.112 292.523 351.906 292.18 350.672 292.16C348.942 292.16 348.266 292.816 348.266 293.612C348.266 295.938 355.603 294.327 355.603 298.96C355.603 301.068 353.853 302.937 350.255 302.937C348.432 302.979 346.641 302.458 345.125 301.445Z" fill="#E0E0E0"/>
<path d="M366.856 298.642H359.519C359.665 299.253 360.027 299.792 360.539 300.157C361.05 300.523 361.677 300.691 362.303 300.63C362.751 300.644 363.197 300.567 363.614 300.403C364.031 300.239 364.41 299.991 364.728 299.676L366.22 301.306C365.461 302.036 364.514 302.539 363.486 302.759C362.457 302.979 361.387 302.907 360.397 302.551C359.406 302.196 358.535 301.57 357.881 300.746C357.227 299.922 356.817 298.932 356.696 297.886C356.687 297.213 356.816 296.545 357.075 295.924C357.334 295.303 357.717 294.741 358.201 294.273C358.686 293.806 359.261 293.442 359.891 293.205C360.521 292.969 361.193 292.863 361.865 292.896C362.536 292.862 363.206 292.968 363.833 293.209C364.46 293.449 365.029 293.818 365.505 294.292C365.98 294.766 366.352 295.334 366.595 295.96C366.838 296.586 366.947 297.256 366.915 297.926C366.915 298.105 366.876 298.403 366.856 298.642ZM359.479 296.992H364.251C364.149 296.434 363.854 295.929 363.418 295.566C362.982 295.202 362.433 295.003 361.865 295.003C361.298 295.003 360.748 295.202 360.312 295.566C359.876 295.929 359.582 296.434 359.479 296.992Z" fill="#E0E0E0"/>
<path d="M377.096 297.151V302.698H374.472V301.485C374.144 301.955 373.696 302.328 373.175 302.566C372.654 302.804 372.079 302.898 371.509 302.837C369.243 302.837 367.891 301.565 367.891 299.895C367.891 298.225 369.103 296.992 372.046 296.992H374.293C374.293 295.799 373.557 295.004 372.046 295.004C371.046 294.995 370.07 295.309 369.263 295.898L368.248 293.91C369.494 293.115 370.947 292.707 372.424 292.737C375.307 292.856 377.096 294.228 377.096 297.151ZM374.293 299.636V298.642H372.305C370.992 298.642 370.575 299.119 370.575 299.775C370.575 300.432 371.171 300.948 372.146 300.948C372.597 300.993 373.052 300.889 373.439 300.652C373.827 300.415 374.126 300.059 374.293 299.636Z" fill="#E0E0E0"/>
<path d="M385.665 292.856V295.441H385.029C384.676 295.412 384.321 295.462 383.99 295.587C383.659 295.712 383.359 295.909 383.114 296.164C382.868 296.419 382.683 296.726 382.57 297.062C382.458 297.397 382.421 297.754 382.464 298.106V302.698H379.641V292.996H382.325V294.268C382.73 293.785 383.244 293.405 383.825 293.159C384.405 292.914 385.036 292.81 385.665 292.856Z" fill="#E0E0E0"/>
<path d="M386.539 297.847C386.54 297.156 386.683 296.472 386.961 295.839C387.238 295.206 387.644 294.638 388.152 294.169C388.66 293.7 389.259 293.342 389.912 293.116C390.565 292.89 391.258 292.802 391.947 292.857C392.834 292.786 393.721 292.983 394.494 293.422C395.267 293.862 395.89 294.524 396.282 295.322L394.094 296.495C393.894 296.093 393.584 295.755 393.201 295.519C392.818 295.284 392.377 295.16 391.927 295.163C391.215 295.163 390.533 295.446 390.029 295.949C389.526 296.453 389.243 297.135 389.243 297.847C389.243 298.559 389.526 299.242 390.029 299.745C390.533 300.249 391.215 300.531 391.927 300.531C392.378 300.539 392.821 300.417 393.205 300.181C393.589 299.945 393.898 299.605 394.094 299.199L396.282 300.392C395.883 301.183 395.257 301.838 394.486 302.273C393.714 302.709 392.831 302.905 391.947 302.838C391.258 302.893 390.565 302.804 389.912 302.578C389.259 302.353 388.66 301.994 388.152 301.525C387.644 301.057 387.238 300.488 386.961 299.855C386.683 299.222 386.54 298.538 386.539 297.847Z" fill="#E0E0E0"/>
<path d="M407.754 297.151V302.698H404.931V297.569C404.931 295.998 404.215 295.282 402.943 295.282C401.67 295.282 400.616 296.117 400.616 297.907V302.698H397.793V289.317H400.616V294.01C401.028 293.623 401.512 293.321 402.041 293.123C402.57 292.925 403.134 292.834 403.698 292.857C404.263 292.813 404.83 292.896 405.358 293.1C405.887 293.304 406.363 293.624 406.752 294.035C407.141 294.447 407.432 294.941 407.606 295.48C407.779 296.019 407.83 296.59 407.754 297.151Z" fill="#E0E0E0"/>
<path d="M414.715 301.068C414.715 300.604 414.899 300.159 415.227 299.831C415.555 299.503 416 299.318 416.465 299.318C416.929 299.318 417.374 299.503 417.702 299.831C418.03 300.159 418.214 300.604 418.214 301.068C418.214 301.532 418.03 301.977 417.702 302.305C417.374 302.633 416.929 302.818 416.465 302.818C416 302.818 415.555 302.633 415.227 302.305C414.899 301.977 414.715 301.532 414.715 301.068Z" fill="#E0E0E0"/>
<path d="M419.446 301.068C419.45 300.723 419.556 300.386 419.75 300.101C419.945 299.816 420.22 299.595 420.54 299.465C420.86 299.336 421.211 299.304 421.549 299.374C421.887 299.444 422.197 299.612 422.44 299.857C422.682 300.103 422.847 300.415 422.913 300.753C422.979 301.092 422.943 301.443 422.81 301.762C422.677 302.08 422.453 302.352 422.165 302.544C421.878 302.735 421.541 302.837 421.195 302.837C420.963 302.84 420.733 302.796 420.518 302.708C420.303 302.619 420.108 302.489 419.945 302.324C419.782 302.159 419.653 301.962 419.568 301.747C419.482 301.531 419.44 301.3 419.446 301.068Z" fill="#E0E0E0"/>
<path d="M424.156 301.068C424.156 300.604 424.341 300.159 424.669 299.831C424.997 299.503 425.442 299.318 425.906 299.318C426.37 299.318 426.815 299.503 427.143 299.831C427.471 300.159 427.656 300.604 427.656 301.068C427.656 301.298 427.61 301.525 427.522 301.738C427.434 301.95 427.306 302.143 427.143 302.305C426.981 302.468 426.788 302.597 426.575 302.685C426.363 302.772 426.136 302.818 425.906 302.818C425.676 302.818 425.449 302.772 425.236 302.685C425.024 302.597 424.831 302.468 424.669 302.305C424.506 302.143 424.377 301.95 424.289 301.738C424.202 301.525 424.156 301.298 424.156 301.068Z" fill="#E0E0E0"/>
<path d="M254.159 367.695C254.159 367.993 235.509 368.212 212.525 368.212C189.541 368.212 170.891 367.993 170.891 367.695C170.891 367.396 189.521 367.178 212.525 367.178C235.529 367.178 254.159 367.456 254.159 367.695Z" fill="black"/>
<path d="M257.42 391.534H170.891V478.064H257.42V391.534Z" fill="#B0BEC5"/>
<path d="M783.199 411.934C783.199 412.212 675.833 412.451 543.334 412.451C410.836 412.451 303.449 412.212 303.449 411.934C303.449 411.656 410.816 411.417 543.334 411.417C675.852 411.417 783.199 411.636 783.199 411.934Z" fill="black"/>
<path d="M434.676 444.501C434.676 444.8 406.363 445.018 371.469 445.018C336.575 445.018 308.242 444.8 308.242 444.501C308.242 444.203 336.535 443.984 371.469 443.984C406.403 443.984 434.676 444.223 434.676 444.501Z" fill="black"/>
<path d="M706.533 474.723C706.533 475.002 617.359 475.24 507.387 475.24C397.416 475.24 308.242 475.002 308.242 474.723C308.242 474.445 397.396 474.187 507.387 474.187C617.379 474.187 706.533 474.425 706.533 474.723Z" fill="#E0E0E0"/>
<path d="M254.159 522.78C254.159 523.058 235.509 523.297 212.525 523.297C189.541 523.297 170.891 523.058 170.891 522.78C170.891 522.501 189.521 522.263 212.525 522.263C235.529 522.263 254.159 522.442 254.159 522.78Z" fill="black"/>
<path d="M257.42 546.52H170.891V633.049H257.42V546.52Z" fill="#B0BEC5"/>
<path d="M811.711 566.9C811.711 567.198 697.922 567.417 557.59 567.417C417.258 567.417 303.449 567.198 303.449 566.9C303.449 566.602 417.218 566.383 557.59 566.383C697.962 566.383 811.711 566.621 811.711 566.9Z" fill="black"/>
<path d="M434.676 599.488C434.676 599.766 406.363 600.005 371.469 600.005C336.575 600.005 308.242 599.766 308.242 599.488C308.242 599.209 336.535 598.971 371.469 598.971C406.403 598.971 434.676 599.209 434.676 599.488Z" fill="black"/>
<path d="M775.884 629.69C775.884 629.988 671.201 630.207 542.083 630.207C412.964 630.207 308.242 629.988 308.242 629.69C308.242 629.392 412.925 629.173 542.083 629.173C671.241 629.173 775.884 629.411 775.884 629.69Z" fill="#E0E0E0"/>
<path d="M885.357 680.589C885.357 677.169 885.198 472.218 884.939 148.19L885.357 148.607H108.301L108.818 148.09C108.818 338.129 108.818 518.684 108.818 680.49L108.34 680.012L885.456 680.49L108.34 680.947H107.863V680.49C107.863 518.684 107.863 338.129 107.863 148.09V147.573H108.44H885.496H885.914V147.991C885.536 472.218 885.357 677.169 885.357 680.589Z" fill="#263238"/>
<path d="M377.495 186.762C377.495 187.06 350.056 187.279 316.216 187.279C282.376 187.279 254.938 187.06 254.938 186.762C254.938 186.464 282.376 186.245 316.216 186.245C350.056 186.245 377.495 186.484 377.495 186.762Z" fill="black"/>
<path d="M266.943 284.625H158.105V317.412H266.943V284.625Z" fill="#455A64"/>
<path d="M459.667 370.498C459.667 370.797 425.867 371.015 384.113 371.015C342.359 371.015 308.559 370.797 308.559 370.498C308.559 370.2 342.359 369.981 384.113 369.981C425.867 369.981 459.667 370.22 459.667 370.498Z" fill="#B0BEC5"/>
<path d="M459.667 522.78C459.667 523.058 425.867 523.297 384.113 523.297C342.359 523.297 308.559 523.058 308.559 522.78C308.559 522.501 342.359 522.263 384.113 522.263C425.867 522.263 459.667 522.442 459.667 522.78Z" fill="#B0BEC5"/>
<path d="M788.986 304.587C786.483 304.591 784.035 303.852 781.953 302.464C779.87 301.076 778.246 299.101 777.287 296.79C776.327 294.478 776.075 291.934 776.562 289.479C777.05 287.024 778.254 284.769 780.024 283C781.794 281.23 784.049 280.025 786.504 279.538C788.958 279.051 791.503 279.303 793.814 280.262C796.126 281.222 798.1 282.846 799.488 284.928C800.876 287.011 801.615 289.458 801.611 291.961C801.606 295.308 800.274 298.516 797.907 300.883C795.541 303.25 792.332 304.581 788.986 304.587ZM788.986 281.304C786.877 281.3 784.815 281.922 783.059 283.09C781.304 284.259 779.935 285.922 779.126 287.869C778.316 289.816 778.102 291.959 778.511 294.028C778.92 296.097 779.933 297.997 781.423 299.49C782.913 300.982 784.811 301.999 786.879 302.412C788.947 302.825 791.091 302.615 793.039 301.809C794.988 301.003 796.653 299.637 797.825 297.884C798.997 296.131 799.623 294.07 799.623 291.961C799.623 289.138 798.503 286.431 796.508 284.432C794.514 282.434 791.809 281.309 788.986 281.304Z" fill="#B0BEC5"/>
<path d="M804.513 310.194C804.244 310.193 803.987 310.086 803.797 309.895L795.566 301.724C795.473 301.631 795.4 301.521 795.349 301.4C795.299 301.279 795.273 301.149 795.273 301.018C795.273 300.887 795.299 300.757 795.349 300.636C795.4 300.515 795.473 300.405 795.566 300.312C795.658 300.219 795.769 300.146 795.89 300.096C796.011 300.045 796.141 300.02 796.272 300.02C796.403 300.02 796.532 300.045 796.654 300.096C796.775 300.146 796.885 300.219 796.977 300.312L805.209 308.484C805.343 308.625 805.433 308.802 805.469 308.993C805.505 309.185 805.485 309.382 805.411 309.563C805.338 309.743 805.214 309.898 805.055 310.01C804.896 310.122 804.708 310.186 804.513 310.194Z" fill="#B0BEC5"/>
<path d="M595.766 442.275C595.766 442.553 563.218 442.792 523.055 442.792C482.892 442.792 450.324 442.553 450.324 442.275C450.324 441.996 482.892 441.758 523.055 441.758C563.218 441.758 595.766 441.977 595.766 442.275Z" fill="black"/>
<path d="M689.751 440.028C689.751 440.326 672.712 440.545 651.716 440.545C630.719 440.545 613.66 440.326 613.66 440.028C613.66 439.729 630.7 439.511 651.716 439.511C672.732 439.511 689.751 439.749 689.751 440.028Z" fill="black"/>
<path d="M595.071 599.488C595.071 599.766 562.523 600.005 522.36 600.005C482.196 600.005 449.648 599.766 449.648 599.488C449.648 599.209 482.196 598.971 522.36 598.971C562.523 598.971 595.071 599.209 595.071 599.488Z" fill="black"/>
<path d="M536.355 908.683V949.96L619.624 949.562C619.028 941.192 573.317 924.49 573.317 924.49L574.232 908.584L536.355 908.683Z" fill="#455A64"/>
<g opacity="0.6">
<path d="M549.855 920.752C549.044 921.049 548.368 921.629 547.952 922.386C547.535 923.142 547.406 924.024 547.588 924.868C547.779 925.698 548.288 926.419 549.006 926.877C549.724 927.335 550.593 927.491 551.426 927.313C552.286 926.99 553 926.368 553.438 925.561C553.877 924.754 554.009 923.816 553.812 922.919C553.665 922.507 553.438 922.129 553.145 921.806C552.851 921.483 552.495 921.221 552.1 921.036C551.704 920.851 551.275 920.746 550.839 920.728C550.402 920.71 549.967 920.779 549.557 920.931" fill="white"/>
</g>
<path d="M536.355 949.96V943.379L615.886 944.313C615.886 944.313 620.022 946.799 619.644 949.562L536.355 949.96Z" fill="#263238"/>
<path d="M573.357 925.285C573.357 925.723 571.369 925.941 569.381 927.273C567.392 928.606 566.378 930.494 566.001 930.335C565.623 930.176 566.2 927.671 568.605 926.021C571.011 924.371 573.437 924.888 573.357 925.285Z" fill="#263238"/>
<path d="M584.273 929.103C584.273 929.521 582.622 930.276 581.27 932.105C579.918 933.935 579.561 935.863 579.163 935.843C578.765 935.823 578.467 933.418 580.177 931.171C581.887 928.924 584.253 928.705 584.273 929.103Z" fill="#263238"/>
<path d="M589.182 939.621C588.804 939.72 588.208 937.633 589.182 935.227C590.156 932.821 592.065 931.906 592.244 932.264C592.423 932.622 591.27 933.895 590.474 935.843C589.679 937.792 589.58 939.581 589.182 939.621Z" fill="#263238"/>
<path d="M572.54 913.534C572.381 913.932 570.552 913.375 568.225 913.534C565.899 913.693 564.249 914.528 563.97 914.151C563.692 913.773 565.442 912.162 568.126 912.043C570.81 911.924 572.739 913.196 572.54 913.534Z" fill="#263238"/>
<path d="M573.02 927.135C573.245 926.313 573.306 925.455 573.199 924.609C573.018 922.292 572.259 920.057 570.992 918.108C570.126 916.77 569.02 915.604 567.731 914.668C567.351 914.342 566.89 914.125 566.397 914.037C565.904 913.95 565.397 913.996 564.928 914.171C564.44 914.443 564.032 914.837 563.742 915.315C563.453 915.792 563.293 916.337 563.277 916.895C563.406 919.048 564.169 921.116 565.471 922.835C566.774 924.555 568.556 925.851 570.594 926.558C572.589 927.191 574.728 927.211 576.734 926.616C578.74 926.02 580.522 924.836 581.848 923.218C582.499 922.47 583.005 921.607 583.339 920.673C583.508 920.136 583.508 919.559 583.339 919.022C583.246 918.754 583.097 918.509 582.902 918.303C582.706 918.097 582.469 917.936 582.206 917.829C581.343 917.574 580.416 917.667 579.621 918.088C578.932 918.402 578.267 918.768 577.633 919.181C575.762 920.435 574.149 922.034 572.881 923.894C572.362 924.551 571.971 925.3 571.727 926.101C573.452 923.68 575.601 921.591 578.07 919.937C579.184 919.301 580.655 918.386 581.828 918.804C582.345 919.003 582.544 919.619 582.305 920.335C582.002 921.113 581.557 921.827 580.993 922.442C579.79 923.872 578.19 924.913 576.396 925.433C574.602 925.953 572.693 925.93 570.912 925.365C569.132 924.736 567.567 923.613 566.401 922.127C565.236 920.641 564.518 918.854 564.331 916.975C564.317 916.616 564.4 916.261 564.572 915.945C564.743 915.63 564.997 915.368 565.305 915.185C565.622 915.084 565.959 915.063 566.285 915.126C566.612 915.188 566.918 915.332 567.174 915.543C568.378 916.378 569.421 917.421 570.256 918.625C571.509 920.404 572.345 922.443 572.702 924.59C572.96 926.24 572.92 927.135 573.02 927.135Z" fill="#263238"/>
<path d="M505.954 914.648L507.365 925.285L506.431 949.244L475.215 949.999L474.102 925.285L477.641 910.592L505.954 914.648Z" fill="#455A64"/>
<path d="M491.004 947.435C490.805 947.435 491.262 940.118 491.998 931.072C492.733 922.025 493.509 914.668 493.688 914.648C493.867 914.629 493.429 921.985 492.694 931.032C491.958 940.078 491.183 947.435 491.004 947.435Z" fill="#263238"/>
<path d="M506.55 945.247L475.016 945.625V949.999L506.57 949.979L506.55 945.247Z" fill="#263238"/>
<path d="M475.098 931.468C475.098 931.468 475.316 930.971 475.893 930.216C476.72 929.132 477.652 928.133 478.677 927.233C480.182 925.87 481.876 924.732 483.707 923.853C486.908 922.287 490.529 921.791 494.034 922.439C497.538 923.087 500.742 924.845 503.172 927.452C504.09 928.472 504.86 929.617 505.459 930.852C505.712 931.287 505.881 931.766 505.956 932.264C504.986 930.728 503.895 929.272 502.695 927.909C499.573 924.833 495.367 923.105 490.984 923.098C486.59 923.229 482.377 924.872 479.054 927.75C476.489 929.878 475.217 931.588 475.098 931.468Z" fill="#263238"/>
<path d="M490.864 245.893L490.625 353.776L536.932 355.983L538.284 329.738C538.284 329.738 554.727 332.999 558.962 317.808C561.686 308.046 560.95 232.631 560.95 232.631L490.864 245.893Z" fill="#B78876"/>
<path d="M566.995 240.206C559.698 242.294 558.107 254.124 558.107 254.124L546.675 279.395C540.849 274.842 533.015 275.1 531.544 285.36C530.47 292.756 539.676 294.247 539.676 294.247C534.308 303.374 530.689 310.75 522.875 319.419C514.485 328.863 509.713 329.798 500.567 329.917H490.466C490.466 329.917 485.515 313.872 476.369 273.768C466.229 229.271 518.839 234.997 528.601 223.644C544.488 205.173 590.039 233.625 566.995 240.206Z" fill="#263238"/>
<path d="M579.839 230.504C579.436 228.131 578.2 225.979 576.352 224.437C574.503 222.895 572.165 222.064 569.758 222.093C570.511 220.825 570.792 219.332 570.552 217.878C570.312 216.423 569.566 215.099 568.446 214.14C567.284 213.227 565.937 212.576 564.499 212.233C563.061 211.89 561.565 211.862 560.115 212.152C557.215 212.739 554.416 213.743 551.804 215.134C550.828 212.251 548.945 209.76 546.436 208.036C543.736 206.454 540.635 205.687 537.509 205.829C523.293 205.829 515.817 215.552 508.182 225.473C507.068 227.322 505.474 228.833 503.569 229.847C502.183 230.255 500.736 230.417 499.294 230.325C493.863 230.497 488.573 232.098 483.958 234.968C479.343 237.837 475.566 241.873 473.009 246.668C468.039 256.272 464.32 278.481 477.204 292.399L484.959 309.716L559.181 250.903C559.718 251.182 564.37 253.448 567.949 251.579C576.837 246.887 573.099 239.093 573.099 239.093C573.815 238.596 580.595 235.275 579.839 230.504Z" fill="#263238"/>
<path d="M511.145 288.382C511.765 291.089 511.676 293.911 510.887 296.574C510.469 299.322 509.338 301.914 507.606 304.089C507.288 303.93 508.779 300.63 509.734 296.315C510.688 292.001 510.807 288.382 511.145 288.382Z" fill="#455A64"/>
<path d="M516.75 283.073C517.139 285.727 516.99 288.431 516.313 291.026C516.017 293.672 515.185 296.229 513.867 298.542C514.062 295.93 514.495 293.341 515.16 290.808C515.444 288.185 515.977 285.595 516.75 283.073Z" fill="#455A64"/>
<path d="M532.778 265.259C532.897 265.418 531.585 266.372 529.915 268.321C527.786 270.902 526.1 273.818 524.924 276.95C523.783 280.117 522.86 283.359 522.16 286.653C521.964 288.026 521.576 289.364 521.007 290.629C520.923 289.209 521.037 287.783 521.345 286.394C521.816 283.001 522.649 279.668 523.831 276.453C525.041 273.191 526.909 270.213 529.318 267.704C530.261 266.626 531.447 265.788 532.778 265.259Z" fill="#455A64"/>
<path d="M539.256 253.15C539.396 253.15 539.873 254.184 540.171 256.053C540.507 258.516 540.365 261.021 539.753 263.43C539.171 265.843 538.11 268.115 536.632 270.11C535.499 271.641 534.644 272.377 534.465 272.278C534.286 272.178 537.308 268.559 538.62 263.151C539.932 257.743 538.898 253.19 539.256 253.15Z" fill="#455A64"/>
<path d="M484.003 280.091C483.844 280.389 482.432 279.892 480.842 278.997C479.251 278.103 478.078 277.168 478.237 276.87C478.396 276.572 479.808 277.089 481.398 277.983C482.989 278.878 484.162 279.813 484.003 280.091Z" fill="#455A64"/>
<path d="M506.37 268.579C506.551 270.254 506.081 271.934 505.058 273.272C503.626 275.638 501.698 276.871 501.499 276.632C501.3 276.393 502.751 274.843 504.044 272.655C505.336 270.468 506.032 268.5 506.37 268.579Z" fill="#455A64"/>
<path d="M513.253 264.881C513.229 266.918 512.53 268.89 511.265 270.488C509.416 273.311 507.09 274.822 506.911 274.464C506.732 274.106 508.561 272.476 510.291 269.752C511.183 268.072 512.172 266.446 513.253 264.881Z" fill="#455A64"/>
<path d="M547.451 219.667C547.451 219.667 546.577 219.011 544.906 218.056C542.516 216.789 539.858 216.107 537.152 216.068C533.141 215.962 529.184 217.018 525.759 219.11C521.646 221.812 518.308 225.54 516.076 229.926C514.367 233.136 513.033 236.532 512.1 240.047L511.901 240.723L511.285 240.385C508.096 238.716 504.564 237.811 500.966 237.74C498.11 237.675 495.264 238.106 492.555 239.013C490.144 239.907 487.838 241.06 485.676 242.453C486.122 241.921 486.644 241.458 487.227 241.081C488.79 239.942 490.502 239.026 492.317 238.357C495.078 237.305 498.01 236.773 500.966 236.786C504.74 236.777 508.462 237.67 511.822 239.391L511.006 239.749C511.925 236.146 513.26 232.664 514.983 229.37C517.31 224.804 520.818 220.945 525.143 218.196C528.74 216.053 532.891 215.022 537.073 215.233C539.889 215.354 542.628 216.196 545.026 217.679C545.665 218.083 546.259 218.557 546.795 219.09C547.292 219.448 547.471 219.647 547.451 219.667Z" fill="#455A64"/>
<path d="M571.808 225.553C571.708 225.553 573.08 225.195 574.452 226.746C574.848 227.209 575.147 227.747 575.332 228.327C575.516 228.908 575.582 229.52 575.526 230.126C575.405 230.935 575.098 231.704 574.629 232.374C574.159 233.043 573.541 233.594 572.822 233.983C571.114 234.952 569.101 235.23 567.195 234.759C565.099 234.207 563.133 233.248 561.409 231.936C559.599 230.492 557.7 229.163 555.723 227.959C553.583 226.802 551.275 225.99 548.883 225.553C544.236 224.716 539.454 225.044 534.965 226.508C531.278 227.722 527.799 229.493 524.646 231.757C519.238 235.634 516.573 238.895 516.395 238.716C516.929 237.891 517.549 237.125 518.244 236.429C520.064 234.468 522.061 232.677 524.208 231.081C527.378 228.663 530.916 226.769 534.687 225.474C539.355 223.891 544.35 223.521 549.201 224.4C551.713 224.862 554.136 225.721 556.379 226.945C558.378 228.145 560.298 229.473 562.125 230.922C563.724 232.18 565.555 233.112 567.513 233.665C569.191 234.127 570.981 233.935 572.523 233.129C573.147 232.81 573.691 232.355 574.115 231.798C574.538 231.24 574.83 230.594 574.969 229.908C575.112 228.844 574.834 227.767 574.194 226.905C573.584 226.186 572.738 225.707 571.808 225.553Z" fill="#455A64"/>
<path d="M787.533 308.364C785.784 306.814 762.203 316.695 762.203 316.695C762.203 316.695 744.607 330.613 737.369 338.666L732.896 342.384L665.971 394.417L583.656 360.179L565.762 406.088C565.762 406.088 658.177 442.891 672.254 436.588C687.543 429.748 744.507 370.12 744.647 369.921L752.878 361.968C752.878 361.968 757.232 361.968 760.533 361.69C763.833 361.411 773.496 355.069 773.496 355.069C774.413 353.304 775.044 351.405 775.365 349.442C775.567 348.66 775.501 347.833 775.176 347.094C774.852 346.355 774.288 345.746 773.576 345.366C773.912 343.838 773.966 342.261 773.735 340.714C773.357 338.089 769.758 335.047 769.758 335.047C770.88 333.904 771.646 332.461 771.965 330.891C772.761 327.849 768.844 324.927 768.844 324.927C768.844 324.927 782.543 315.622 785.863 313.971C789.184 312.321 789.283 309.915 787.533 308.364Z" fill="#B78876"/>
<path d="M595.766 778.65C596.044 775.628 596.183 773.301 596.183 771.85L605.488 623.465C605.488 623.465 597.674 580.121 593.976 568.629L560.752 555.765L516.473 573.003C516.195 569.444 516.016 567.237 516.016 567.237L450.86 589.784C450.86 589.784 449.17 634.262 450.86 647.802C451.417 652.156 453.107 663.39 455.175 676.632C455.175 676.632 457.283 705.402 457.72 707.012C459.291 712.878 459.708 727.253 459.708 741.648C459.708 759.94 460.702 781.712 461.856 792.051C463.009 802.39 463.546 916.198 463.546 916.198H511.662L517.845 734.948C518.879 715.522 520.43 685.817 521.424 664.324L532.718 731.249C532.718 733.695 539.597 771.969 539.597 771.969C538.009 784.014 537.027 796.132 536.654 808.275C535.859 842.076 531.902 916.198 531.902 916.198H578.985C578.985 916.198 593.141 809.07 595.885 778.65H595.766Z" fill="#263238"/>
<path d="M603.955 614.578C602.41 613.994 600.946 613.212 599.601 612.252C596.261 610.109 593.144 607.638 590.296 604.875C587.448 602.118 584.878 599.088 582.621 595.828C581.605 594.529 580.781 593.089 580.176 591.554C581.266 592.765 582.276 594.047 583.198 595.391C585.595 598.492 588.206 601.422 591.012 604.159C593.819 606.868 596.815 609.373 599.979 611.655C601.373 612.533 602.701 613.51 603.955 614.578Z" fill="#455A64"/>
<path d="M519.892 641.539C519.515 641.098 519.207 640.601 518.978 640.068C518.239 638.673 517.575 637.239 516.989 635.773C514.976 630.946 513.502 625.912 512.595 620.761C511.711 615.609 511.391 610.375 511.641 605.154C511.76 603.165 511.919 601.555 512.098 600.441C512.133 599.855 512.261 599.278 512.476 598.731C512.635 598.731 512.476 601.217 512.377 605.173C512.317 610.337 512.73 615.494 513.609 620.583C514.488 625.668 515.818 630.665 517.586 635.514C518.998 639.233 520.032 641.459 519.892 641.539Z" fill="#455A64"/>
<path d="M526.89 697.409C526.596 696.571 526.389 695.705 526.273 694.825C525.929 692.942 525.491 690.576 524.961 687.726C523.927 681.503 522.535 673.311 520.984 664.245C518.32 647.603 516.511 636.27 515.676 631.001C516.757 634.117 517.516 637.334 517.942 640.604C519.096 646.569 520.527 654.9 522.038 664.066C523.549 673.232 524.802 681.583 525.677 687.607C526.055 690.47 526.393 692.856 526.651 694.765C526.829 695.635 526.909 696.522 526.89 697.409Z" fill="#455A64"/>
<path d="M413.339 449.909C413.339 449.909 406.996 494.625 405.803 510.293C405.088 519.737 414.671 532.164 421.988 533.178C429.305 534.192 453.959 535.564 453.959 535.564L455.948 507.509L455.311 501.922L447.657 500.491L449.963 455.993L413.339 449.909Z" fill="#B78876"/>
<path d="M449.012 457.505C449.209 458.298 449.309 459.113 449.31 459.931C449.429 461.501 449.509 463.768 449.568 466.591C449.708 472.198 449.568 479.972 449.091 488.462C448.614 496.952 447.918 504.766 447.381 510.333C447.083 513.117 446.844 515.383 446.646 516.934C446.601 517.75 446.461 518.557 446.228 519.34C446.138 518.527 446.138 517.707 446.228 516.895C446.328 515.105 446.467 512.918 446.626 510.254C447.004 504.428 447.481 496.813 448.018 488.383C448.554 479.952 448.753 472.119 448.813 466.512C448.813 463.887 448.813 461.66 448.813 459.871C448.796 459.077 448.863 458.284 449.012 457.505Z" fill="#AA6550"/>
<g opacity="0.3">
<path d="M451.436 590.6C463.962 595.252 477.682 595.63 490.983 594.477C504.285 593.324 517.447 590.639 530.748 589.387C550.907 587.503 571.237 588.845 590.973 593.363C592.35 593.781 593.798 593.917 595.228 593.761C595.939 593.671 596.605 593.368 597.141 592.893C597.676 592.417 598.056 591.791 598.23 591.097C598.588 588.87 596.143 587.319 594.075 586.464C571.318 577.053 546.853 572.476 522.232 573.023C497.612 573.571 473.375 579.232 451.059 589.645" fill="black"/>
</g>
<path d="M643.225 380.499L572.601 345.347C561.465 344.04 550.247 343.548 539.039 343.875H492.295C492.295 343.875 435.669 360.577 426.304 375.986L402.027 448.757L450.024 455.994L455.989 508.286C455.989 508.286 450.024 568.828 450.024 577.617C449.894 581.687 450.14 585.76 450.76 589.785C450.76 589.785 546.793 575.191 570.434 582.885C594.074 590.58 600.457 589.785 600.457 589.785C600.457 589.785 598.469 564.653 596.739 550.019L591.291 477.05L587.314 421.378L631.752 434.978L643.225 380.499Z" fill="#B0BEC5"/>
<path d="M449.589 456.57C449.41 456.57 448.933 453.567 447.879 448.716C446.475 442.406 444.615 436.206 442.312 430.165C439.96 424.079 437.21 418.155 434.08 412.43L431.177 407.221C430.766 406.604 430.439 405.935 430.203 405.232C430.722 405.767 431.176 406.361 431.555 407.002C432.37 408.175 433.543 409.905 434.756 412.092C438.113 417.745 440.986 423.671 443.346 429.807C445.672 435.891 447.442 442.173 448.634 448.577C449.072 451.022 449.35 453.011 449.489 454.402C449.612 455.118 449.645 455.846 449.589 456.57Z" fill="#263238"/>
<path d="M540.152 477.229C540.115 477.564 540.028 477.893 539.894 478.203L538.999 480.887C538.601 482.06 538.104 483.472 537.448 485.102C536.792 486.732 536.096 488.601 535.182 490.59C533.452 494.566 531.205 499.378 528.382 504.508C525.558 509.637 522.218 515.085 518.44 520.613C514.663 526.14 510.487 531.131 506.729 535.545C502.972 539.959 499.214 543.677 495.993 546.699C494.422 548.25 492.891 549.542 491.599 550.675C490.306 551.809 489.133 552.823 488.179 553.598L485.952 555.348C485.701 555.568 485.428 555.761 485.137 555.924C485.137 555.924 485.355 555.646 485.833 555.189L487.92 553.2C488.835 552.405 489.909 551.391 491.221 550.178C492.533 548.965 493.965 547.653 495.496 546.082C498.637 543.02 502.216 539.203 506.014 534.829C509.811 530.455 513.748 525.404 517.605 519.937C521.462 514.469 524.763 509.001 527.547 504.03C530.33 499.06 532.696 494.288 534.506 490.291C535.46 488.303 536.195 486.454 536.891 484.863C537.587 483.273 538.164 481.881 538.621 480.728C539.079 479.575 539.397 478.74 539.695 478.103C539.81 477.794 539.964 477.5 540.152 477.229Z" fill="#263238"/>
<path d="M572.78 350.158C570.921 352.815 569.654 355.838 569.061 359.026C568.465 362.48 568.465 366.01 569.061 369.464C569.832 373.716 570.828 377.924 572.044 382.07C574.489 390.977 577.054 398.911 579.023 404.637C579.957 407.341 580.733 409.608 581.369 411.417C581.698 412.233 581.951 413.079 582.124 413.942C581.661 413.188 581.274 412.388 580.971 411.556C580.315 410.005 579.381 407.739 578.307 404.895C576.16 399.229 573.456 391.276 571.01 382.348C569.821 378.184 568.872 373.956 568.167 369.683C567.583 366.13 567.637 362.501 568.326 358.966C568.814 356.581 569.744 354.308 571.07 352.266C571.507 351.465 572.086 350.751 572.78 350.158Z" fill="#263238"/>
<path d="M439.525 426.766C438.478 427.898 437.186 428.775 435.747 429.331C432.369 430.882 428.61 431.409 424.935 430.847C421.26 430.285 417.83 428.659 415.069 426.17C413.866 425.217 412.9 423.999 412.246 422.611C412.385 422.491 413.419 423.903 415.547 425.613C418.314 427.85 421.627 429.311 425.146 429.846C428.664 430.38 432.261 429.969 435.569 428.655C438.014 427.661 439.426 426.627 439.525 426.766Z" fill="white"/>
<path d="M574.866 393.939C574.727 394.468 574.534 394.981 574.289 395.47C573.852 396.465 573.176 397.896 572.202 399.686C569.403 404.76 565.865 409.391 561.704 413.425C555.483 419.462 547.726 423.677 539.276 425.613C534.295 426.754 529.147 426.977 524.085 426.269C518.67 425.407 513.459 423.553 508.716 420.801C498.954 415.353 490.702 408.454 481.676 405.153C473.691 402.202 465.003 401.724 456.743 403.781C451.168 405.119 445.907 407.53 441.254 410.88C437.993 413.285 436.462 414.975 436.383 414.856C437.775 413.263 439.327 411.817 441.015 410.542C446.787 406.167 453.559 403.3 460.717 402.2C467.875 401.1 475.194 401.8 482.014 404.239C491.259 407.579 499.57 414.498 509.213 419.867C513.842 422.593 518.929 424.453 524.225 425.354C529.171 426.05 534.202 425.848 539.077 424.758C547.377 422.898 555.018 418.823 561.187 412.967C565.362 409.034 568.952 404.521 571.844 399.566C572.858 397.817 573.613 396.405 574.091 395.451C574.309 394.927 574.568 394.422 574.866 393.939Z" fill="white"/>
<path d="M619.087 368.43C619.481 369.16 619.788 369.934 620.002 370.736C620.657 372.887 621.045 375.111 621.155 377.357C621.541 384.888 619.158 392.3 614.455 398.194C611.723 401.219 608.758 404.024 605.587 406.585C603.099 408.672 601.068 411.251 599.622 414.16C598.645 416.119 598.186 418.296 598.29 420.483C598.409 422.034 598.747 422.869 598.648 422.888C598.549 422.908 598.509 422.71 598.35 422.312C598.125 421.736 597.971 421.135 597.892 420.522C597.62 418.247 597.985 415.941 598.946 413.862C600.344 410.815 602.378 408.104 604.911 405.909C607.997 403.336 610.9 400.553 613.6 397.578C618.14 391.853 620.538 384.722 620.38 377.417C620.227 374.388 619.795 371.379 619.087 368.43Z" fill="white"/>
<path d="M504.226 536.061C503.6 536.396 502.931 536.644 502.238 536.797C500.321 537.346 498.367 537.758 496.392 538.03C493.415 538.524 490.365 538.347 487.465 537.513C485.744 536.966 484.154 536.073 482.792 534.888C481.423 533.588 480.148 532.193 478.975 530.713C477.825 529.304 476.487 528.06 474.998 527.015C473.582 526.091 472.051 525.356 470.445 524.828C467.693 523.948 464.784 523.67 461.915 524.012C459.971 524.227 458.076 524.764 456.309 525.603C455.671 525.96 455.006 526.265 454.32 526.518C454.841 525.996 455.446 525.565 456.11 525.245C457.869 524.228 459.806 523.554 461.816 523.257C464.793 522.779 467.84 522.99 470.724 523.873C472.433 524.398 474.059 525.161 475.555 526.14C477.144 527.209 478.564 528.509 479.77 529.997C480.911 531.436 482.147 532.798 483.468 534.073C484.73 535.181 486.195 536.032 487.783 536.578C490.554 537.398 493.465 537.635 496.332 537.274C501.164 536.698 504.186 535.882 504.226 536.061Z" fill="white"/>
<path d="M595.666 531.826C595.477 532.03 595.263 532.211 595.03 532.363C594.394 532.839 593.73 533.278 593.042 533.675C590.572 535.182 587.891 536.315 585.089 537.035C580.876 538.118 576.494 538.375 572.185 537.791C566.869 537.071 561.821 535.019 557.511 531.826C553.416 528.518 549.5 524.994 545.78 521.268C542.737 518.31 539.215 515.89 535.362 514.11C532.776 512.912 529.961 512.288 527.111 512.281C525.122 512.281 523.969 512.619 523.949 512.5C524.203 512.381 524.47 512.294 524.745 512.241C525.511 512.034 526.298 511.908 527.091 511.864C530.029 511.731 532.96 512.268 535.66 513.434C539.638 515.162 543.279 517.578 546.417 520.572C550.055 523.793 553.674 527.71 558.128 530.991C562.301 534.059 567.173 536.041 572.304 536.757C576.501 537.365 580.774 537.196 584.91 536.26C587.678 535.601 590.35 534.592 592.863 533.257C593.767 532.723 594.703 532.245 595.666 531.826Z" fill="white"/>
<path d="M764.668 248.518C750.227 241.61 737.621 231.389 727.879 218.687C718.136 205.986 711.531 191.162 708.602 175.424C705.674 159.686 706.503 143.479 711.024 128.122C715.546 112.766 723.63 98.6946 734.619 87.0543C745.608 75.4139 759.191 66.5338 774.263 61.1372C789.334 55.7406 805.466 53.9802 821.347 55.9992C837.227 58.0182 852.406 63.7596 865.647 72.7558C878.888 81.7521 889.817 93.7486 897.544 107.769C907.95 126.623 912.097 148.295 909.387 169.659C906.678 191.023 897.251 210.973 882.468 226.633C867.685 242.292 848.309 252.85 827.136 256.784C805.964 260.717 784.089 257.823 764.668 248.518ZM849.408 71.2838C829.012 61.5477 805.808 59.4187 783.981 65.2806C762.154 71.1424 743.139 84.6094 730.364 103.254C717.59 121.898 711.896 144.492 714.311 166.964C716.725 189.435 727.088 210.305 743.531 225.81C759.974 241.315 781.416 250.436 803.99 251.527C826.565 252.619 848.786 245.61 866.649 231.763C884.511 217.917 896.839 198.145 901.411 176.011C905.982 153.877 902.495 130.839 891.579 111.049C882.019 93.7155 867.272 79.8099 849.408 71.2838Z" fill="#263238"/>
<path d="M936.214 359.742C933.36 361.497 929.926 362.049 926.666 361.278C923.405 360.506 920.583 358.474 918.817 355.626L852.349 247.882C852.046 247.394 851.95 246.806 852.08 246.247C852.211 245.688 852.558 245.203 853.045 244.899L867.221 236.151C867.704 235.856 868.283 235.759 868.835 235.882C869.387 236.004 869.871 236.336 870.184 236.807L940.092 341.848C941.053 343.264 941.716 344.861 942.042 346.542C942.368 348.223 942.349 349.952 941.986 351.625C941.624 353.298 940.925 354.881 939.933 356.276C938.941 357.671 937.676 358.85 936.214 359.742Z" fill="#263238"/>
<path d="M767.114 243.388C752.665 236.484 740.05 226.264 730.299 213.56C720.548 200.857 713.936 186.029 711.002 170.286C708.068 154.542 708.895 138.329 713.415 122.965C717.935 107.602 726.021 93.524 737.014 81.8782C748.007 70.2325 761.595 61.3485 776.673 55.9501C791.75 50.5517 807.889 48.7917 823.775 50.8134C839.662 52.835 854.846 58.5813 868.09 67.5839C881.335 76.5865 892.265 88.5907 899.991 102.619C910.39 121.474 914.532 143.144 911.82 164.506C909.108 185.867 899.683 205.815 884.902 221.473C870.121 237.132 850.75 247.692 829.58 251.631C808.411 255.569 786.538 252.683 767.114 243.388ZM851.855 66.1537C831.458 56.4177 808.255 54.2886 786.428 60.1505C764.6 66.0124 745.586 79.4794 732.811 98.1236C720.037 116.768 714.343 139.362 716.757 161.834C719.172 184.305 729.535 205.175 745.978 220.68C762.421 236.185 783.863 245.306 806.437 246.397C829.011 247.489 851.233 240.48 869.096 226.633C886.958 212.787 899.286 193.015 903.857 170.881C908.428 148.747 904.942 125.709 894.026 105.919C884.466 88.5854 869.719 74.6799 851.855 66.1537Z" fill="#455A64"/>
<path d="M853.659 240.772L871.478 229.78L942.16 344.358C943.544 346.602 943.98 349.304 943.372 351.87C942.764 354.435 941.162 356.654 938.918 358.038L937.886 358.675C935.642 360.059 932.94 360.496 930.374 359.888C927.809 359.28 925.59 357.678 924.206 355.434L853.523 240.855L853.659 240.772Z" fill="#455A64"/>
<path d="M735.062 127.551C735.157 126.49 735.343 125.439 735.619 124.41C735.854 123.185 736.167 121.977 736.554 120.791C737.004 119.194 737.534 117.622 738.144 116.079L739.158 113.395C739.536 112.46 740.033 111.546 740.491 110.552C741.385 108.563 742.598 106.575 743.811 104.487C746.632 100.01 749.896 95.8264 753.553 92.001C757.279 88.2509 761.368 84.8807 765.761 81.9404C767.69 80.6814 769.681 79.5201 771.726 78.4609C772.681 77.9638 773.595 77.4469 774.51 77.0294L777.174 75.896C778.693 75.2431 780.246 74.6723 781.827 74.1861C783.002 73.7628 784.204 73.4174 785.425 73.1522C786.45 72.8617 787.493 72.6424 788.547 72.4961C787.567 72.9101 786.556 73.249 785.525 73.5101C784.33 73.8395 783.155 74.2378 782.006 74.7031C780.457 75.2319 778.937 75.8425 777.452 76.5323L774.848 77.7054C773.933 78.1229 773.038 78.6597 772.104 79.1568C770.116 80.1311 768.287 81.4036 766.239 82.676C761.951 85.5982 757.956 88.9274 754.309 92.6174C750.699 96.3895 747.456 100.497 744.626 104.885C743.413 106.873 742.181 108.862 741.266 110.85C740.809 111.804 740.292 112.699 739.894 113.614L738.781 116.258C738.025 117.908 737.568 119.499 737.071 120.871C736.644 122.035 736.285 123.223 735.997 124.43C735.769 125.494 735.457 126.537 735.062 127.551Z" fill="#E0E0E0"/>
</svg>
